<?xml version="1.0" encoding="UTF-8" standalone="no"?>
<svg
   xmlns:dc="http://purl.org/dc/elements/1.1/"
   xmlns:cc="http://creativecommons.org/ns#"
   xmlns:rdf="http://www.w3.org/1999/02/22-rdf-syntax-ns#"
   xmlns:svg="http://www.w3.org/2000/svg"
   xmlns="http://www.w3.org/2000/svg"
   xmlns:sodipodi="http://sodipodi.sourceforge.net/DTD/sodipodi-0.dtd"
   xmlns:inkscape="http://www.inkscape.org/namespaces/inkscape"
   width="210mm"
   height="297mm"
   viewBox="0 0 210 297"
   version="1.1"
   id="svg8"
   sodipodi:docname="DekselXSZ.svg"
   inkscape:version="1.0.1 (3bc2e813f5, 2020-09-07)">
  <defs
     id="defs2" />
  <sodipodi:namedview
     id="base"
     pagecolor="#ffffff"
     bordercolor="#ff6666"
     borderopacity="0.59607843"
     inkscape:pageopacity="0.49019608"
     inkscape:pageshadow="2"
     inkscape:zoom="1.0511298"
     inkscape:cx="257.85946"
     inkscape:cy="323.12828"
     inkscape:document-units="mm"
     inkscape:current-layer="layer1"
     inkscape:document-rotation="0"
     showgrid="false"
     showguides="true"
     inkscape:guide-bbox="true"
     inkscape:window-width="1920"
     inkscape:window-height="1017"
     inkscape:window-x="-8"
     inkscape:window-y="-8"
     inkscape:window-maximized="1"
     inkscape:pagecheckerboard="true"
     showborder="true"
     borderlayer="false">
    <sodipodi:guide
       position="25,259.39172"
       orientation="-1,0"
       id="guide10"
       inkscape:label=""
       inkscape:locked="false"
       inkscape:color="rgb(0,0,255)" />
    <sodipodi:guide
       position="100,301.53572"
       orientation="-1,0"
       id="guide14"
       inkscape:label=""
       inkscape:locked="false"
       inkscape:color="rgb(0,0,255)" />
    <sodipodi:guide
       position="48.85562,272"
       orientation="0,1"
       id="guide16"
       inkscape:label=""
       inkscape:locked="false"
       inkscape:color="rgb(0,0,255)" />
    <sodipodi:guide
       position="52.018934,197"
       orientation="0,1"
       id="guide18"
       inkscape:label=""
       inkscape:locked="false"
       inkscape:color="rgb(0,0,255)" />
    <sodipodi:guide
       position="30,241.46627"
       orientation="-1,0"
       id="guide20"
       inkscape:label=""
       inkscape:locked="false"
       inkscape:color="rgb(0,0,255)" />
    <sodipodi:guide
       position="95,234.08521"
       orientation="-1,0"
       id="guide22"
       inkscape:label=""
       inkscape:locked="false"
       inkscape:color="rgb(0,0,255)" />
    <sodipodi:guide
       position="8.4355028,267"
       orientation="0,1"
       id="guide24"
       inkscape:label=""
       inkscape:locked="false"
       inkscape:color="rgb(0,0,255)" />
    <sodipodi:guide
       position="65.726626,202"
       orientation="0,1"
       id="guide26"
       inkscape:label=""
       inkscape:locked="false"
       inkscape:color="rgb(0,0,255)" />
    <sodipodi:guide
       position="100,272"
       orientation="0.70710678,-0.70710678"
       id="guide889" />
    <sodipodi:guide
       position="24.999999,272.00001"
       orientation="-0.70710678,-0.70710678"
       id="guide891" />
    <sodipodi:guide
       position="62.599997,234.40002"
       orientation="0,-1"
       id="guide893" />
    <sodipodi:guide
       position="62.599987,234.40003"
       orientation="1,0"
       id="guide895" />
    <sodipodi:guide
       position="50,117"
       orientation="-1,0"
       id="guide1157"
       inkscape:label=""
       inkscape:locked="false"
       inkscape:color="rgb(0,0,255)" />
    <sodipodi:guide
       position="45.41341,89.49404"
       orientation="0,1"
       id="guide1159"
       inkscape:label=""
       inkscape:locked="false"
       inkscape:color="rgb(0,0,255)" />
    <sodipodi:guide
       position="41.738226,238.70888"
       orientation="1,0"
       id="guide874" />
  </sodipodi:namedview>
  <metadata
     id="metadata5">
    <rdf:RDF>
      <cc:Work
         rdf:about="">
        <dc:format>image/svg+xml</dc:format>
        <dc:type
           rdf:resource="http://purl.org/dc/dcmitype/StillImage" />
        <dc:title></dc:title>
      </cc:Work>
    </rdf:RDF>
  </metadata>
  <g
     inkscape:label="Laag 1"
     inkscape:groupmode="layer"
     id="layer1"
     style="display:inline">
    <circle
       style="display:inline;fill:none;stroke:#ff0000;stroke-width:0.0995012;stroke-linecap:round;stroke-linejoin:round;stroke-miterlimit:4;stroke-dasharray:none;stroke-opacity:1"
       id="path30"
       cx="30"
       cy="30"
       r="0.90024936" />
    <circle
       style="display:inline;fill:#f86f28;stroke-width:0.104;stroke-linecap:round;stroke-linejoin:round"
       id="path32"
       cx="30.099998"
       cy="95.099998"
       r="2.105575e-13" />
    <circle
       style="display:inline;fill:none;stroke:#ff0000;stroke-width:0.0973354;stroke-linecap:round;stroke-linejoin:round;stroke-miterlimit:4;stroke-dasharray:none;stroke-opacity:1"
       id="path34"
       cx="30"
       cy="95"
       r="0.90133232" />
    <circle
       style="display:inline;fill:none;stroke:#ff0000;stroke-width:0.0992874;stroke-linecap:round;stroke-linejoin:round;stroke-miterlimit:4;stroke-dasharray:none;stroke-opacity:1"
       id="path36"
       cx="95"
       cy="30"
       r="0.90035629" />
    <circle
       style="display:inline;fill:none;stroke:#ff0000;stroke-width:0.0992874;stroke-linecap:round;stroke-linejoin:round;stroke-miterlimit:4;stroke-dasharray:none;stroke-opacity:1"
       id="path38"
       cx="95"
       cy="95"
       r="0.90035629" />
    <rect
       style="display:inline;fill:none;fill-opacity:1;stroke:#00ff00;stroke-width:0.0998672;stroke-linecap:round;stroke-linejoin:round;stroke-miterlimit:4;stroke-dasharray:none;stroke-opacity:1"
       id="rect879"
       width="75.100136"
       height="75.100136"
       x="24.949934"
       y="24.949934" />
    <text
       xml:space="preserve"
       style="font-style:normal;font-weight:normal;font-size:10.5833px;line-height:125%;font-family:sans-serif;letter-spacing:0px;word-spacing:0px;display:inline;fill:#000000;fill-opacity:1;stroke:none;stroke-width:0.264583px;stroke-linecap:butt;stroke-linejoin:miter;stroke-opacity:1"
       x="30.099998"
       y="85.992554"
       id="text883"><tspan
         sodipodi:role="line"
         id="tspan881"
         x="30.099998"
         y="85.992554"
         style="stroke-width:0.264583px" /></text>
    <path
       id="path2991"
       style="font-style:italic;font-variant:normal;font-weight:bold;font-stretch:normal;font-size:7px;line-height:125%;font-family:PreludeFLF;-inkscape-font-specification:'PreludeFLF, Bold Italic';font-variant-ligatures:normal;font-variant-caps:normal;font-variant-numeric:normal;font-variant-east-asian:normal;letter-spacing:0px;word-spacing:0px;fill:#000000;fill-opacity:1;stroke:none;stroke-width:0.999999px;stroke-linecap:butt;stroke-linejoin:miter;stroke-opacity:1"
       d="m 143.87305,224.24023 c -0.24693,0 -0.4681,0.008 -0.66211,0.0254 -0.17638,0.0176 -0.35292,0.0448 -0.5293,0.0801 -0.98772,0.17638 -2.08963,0.52946 -3.30664,1.0586 -1.21701,0.52913 -2.45084,1.19067 -3.70312,1.98437 -1.25229,0.77606 -2.47837,1.64906 -3.67774,2.61914 -1.18173,0.97008 -2.23127,1.98275 -3.14844,3.04102 -0.91716,1.05827 -1.65824,2.13497 -2.22265,3.22851 -0.56441,1.07591 -0.84571,2.11574 -0.84571,3.1211 0,1.11118 0.30846,1.9318 0.92578,2.46094 0.61733,0.52913 1.42824,0.79492 2.4336,0.79492 0.98772,0 2.00234,-0.17654 3.04297,-0.5293 1.05827,-0.35276 2.05348,-0.78538 2.98828,-1.29688 0.95244,-0.51149 1.80023,-1.04887 2.54101,-1.61328 0.19429,-0.1491 0.34449,-0.28008 0.51563,-0.41992 -0.13896,0.45701 -0.22461,0.86957 -0.22461,1.21289 0,0.67024 0.17654,1.22507 0.5293,1.66602 0.37039,0.45858 0.95239,0.68945 1.74609,0.68945 1.00535,0 2.15189,-0.31816 3.43945,-0.95312 0.80296,-0.40698 1.61983,-0.90701 2.44336,-1.45118 -0.001,0.0427 -0.01,0.0864 -0.01,0.12891 0,0.68787 0.21146,1.24271 0.63476,1.66602 0.42331,0.4233 1.00531,0.63476 1.7461,0.63476 0.56441,0 1.12895,-0.0795 1.69336,-0.23828 0.58204,-0.1411 1.14658,-0.3351 1.69336,-0.58203 0.54677,-0.22929 1.06668,-0.48537 1.56054,-0.76758 0.42901,-0.24514 0.79929,-0.48105 1.14844,-0.71289 -0.0705,0.24678 -0.11719,0.48627 -0.11719,0.71289 0,0.40567 0.12417,0.74129 0.3711,1.00586 0.24693,0.26457 0.57284,0.39648 0.97851,0.39648 0.44095,1e-5 0.97832,-0.13967 1.61328,-0.42187 0.63496,-0.2822 1.26159,-0.61008 1.87891,-0.98047 0.63496,-0.37039 1.21696,-0.74093 1.74609,-1.11133 0.52914,-0.37039 0.89968,-0.63423 1.11133,-0.79297 0.21165,-0.15874 0.31836,-0.36049 0.31836,-0.60742 0,-0.22929 -0.0892,-0.43299 -0.26562,-0.60937 -0.15874,-0.19402 -0.3605,-0.29102 -0.60743,-0.29102 -0.19401,0 -0.3628,0.0621 -0.5039,0.18555 -0.47622,0.37039 -0.96122,0.72347 -1.45508,1.05859 -0.47622,0.31748 -0.9263,0.59878 -1.34961,0.84571 -0.40567,0.24692 -0.7568,0.44092 -1.05664,0.58203 -0.28221,0.1411 -0.47621,0.21093 -0.58203,0.21093 -0.0882,0 -0.13281,-0.0349 -0.13281,-0.10546 0,-0.12347 0.14162,-0.35239 0.42382,-0.6875 0.84662,-1.00536 1.64783,-1.88611 2.40625,-2.64454 0.75843,-0.75842 1.48205,-1.47429 2.16993,-2.14453 l 0.42382,-0.42187 c 0.15874,-0.15874 0.23829,-0.36245 0.23829,-0.60938 0,-0.29984 -0.0795,-0.52876 -0.23829,-0.6875 -0.15874,-0.15874 -0.35274,-0.23828 -0.58203,-0.23828 -0.22929,0 -0.45821,0.0873 -0.6875,0.26367 -0.58204,0.44095 -1.12913,0.90074 -1.64062,1.37696 -0.5115,0.45858 -0.9965,0.89896 -1.45508,1.32226 -0.44095,0.40567 -0.85611,0.77621 -1.24414,1.11133 -0.38803,0.31748 -0.74887,0.5561 -1.08399,0.71484 -0.10468,0.0554 -0.16819,0.11958 -0.23632,0.1836 0,0 -0.002,0.002 -0.002,0.002 -0.31748,0.24693 -0.73264,0.53793 -1.24414,0.87305 -0.49386,0.33512 -1.03123,0.66103 -1.61328,0.97851 -0.58205,0.31748 -1.1815,0.59102 -1.79883,0.82032 -0.59968,0.21165 -1.16422,0.3164 -1.69336,0.3164 -0.56441,0 -0.84765,-0.25608 -0.84765,-0.76758 0,-0.51149 0.2037,-1.10124 0.60937,-1.77148 0.40567,-0.67024 0.90813,-1.30461 1.50782,-1.9043 0.61732,-0.59968 1.28856,-1.10409 2.01171,-1.50976 0.72315,-0.42331 1.39245,-0.63477 2.00977,-0.63477 0.15874,0 0.29066,0.0272 0.39648,0.0801 0.10583,0.0529 0.15821,0.14991 0.15821,0.29102 0,0.0882 -0.0252,0.18518 -0.0781,0.29101 -0.0529,0.10583 -0.0801,0.21253 -0.0801,0.31836 0,0.21165 0.0795,0.38624 0.23828,0.52734 0.17638,0.14111 0.37038,0.21289 0.58204,0.21289 0.17637,0 0.33546,-0.0621 0.47656,-0.18554 0.15874,-0.12347 0.29066,-0.27284 0.39648,-0.44922 0.10583,-0.17638 0.18537,-0.36263 0.23828,-0.55664 0.0529,-0.21165 0.0801,-0.40565 0.0801,-0.58203 0,-0.47622 -0.21146,-0.84676 -0.63476,-1.11133 -0.42331,-0.28221 -0.97039,-0.42188 -1.64063,-0.42188 -0.89953,0 -1.82685,0.24638 -2.77929,0.74024 -0.93481,0.47622 -1.79035,1.08538 -2.56641,1.82617 -0.74492,0.71106 -1.35493,1.4962 -1.83985,2.35352 -0.13041,0.0245 -0.25297,0.0685 -0.35546,0.1582 -0.86426,0.63496 -1.63055,1.14712 -2.30078,1.53516 -0.6526,0.38803 -1.2346,0.69649 -1.7461,0.92578 -0.49386,0.22929 -0.91873,0.38837 -1.27148,0.47656 -0.35276,0.0705 -0.65151,0.10547 -0.89844,0.10547 -0.49386,0 -0.74024,-0.21146 -0.74024,-0.63477 1e-5,-0.22929 0.0795,-0.52029 0.23829,-0.87304 0.72315,-0.0529 1.48944,-0.212 2.30078,-0.47657 0.81134,-0.2822 1.55242,-0.62558 2.22265,-1.03125 0.68788,-0.40567 1.25242,-0.8635 1.69336,-1.375 0.45859,-0.52913 0.6875,-1.07621 0.6875,-1.64062 0,-0.54677 -0.17654,-1.01431 -0.52929,-1.40235 -0.33512,-0.40566 -0.82787,-0.60937 -1.48047,-0.60937 -0.67024,0 -1.30657,0.16879 -1.90625,0.50391 -0.58205,0.31748 -1.12913,0.72293 -1.64063,1.21679 -0.49386,0.47622 -0.93423,0.99614 -1.32226,1.56055 -0.15649,0.2205 -0.25813,0.41011 -0.39453,0.61914 -0.0369,-0.0473 -0.0597,-0.0989 -0.10743,-0.14258 -0.21165,-0.19401 -0.45027,-0.29101 -0.71484,-0.29101 -0.26457,0 -0.50319,0.11445 -0.71484,0.34375 -0.35276,0.37039 -0.86297,0.80301 -1.53321,1.29687 -0.6526,0.49386 -1.37622,0.96915 -2.16992,1.42774 -0.7937,0.44094 -1.60462,0.81923 -2.43359,1.13671 -0.82898,0.29985 -1.58752,0.45118 -2.27539,0.45118 -0.56441,0 -0.97958,-0.12417 -1.24414,-0.3711 -0.24693,-0.24693 -0.3711,-0.65238 -0.3711,-1.21679 0,-0.75843 0.24833,-1.57905 0.74219,-2.46094 0.5115,-0.89953 1.18079,-1.79774 2.00977,-2.69727 0.82897,-0.89953 1.77376,-1.78223 2.83203,-2.64648 1.0759,-0.86425 2.16811,-1.64025 3.27929,-2.32813 1.11118,-0.70551 2.20535,-1.29721 3.28125,-1.77343 1.07591,-0.49386 2.04591,-0.81978 2.91016,-0.97852 0.0882,-0.0176 0.20265,-0.0254 0.34375,-0.0254 0.31748,0 0.47656,0.11446 0.47656,0.34375 0,0.19402 -0.12416,0.44039 -0.37109,0.74023 -0.24693,0.28221 -0.57285,0.59067 -0.97852,0.92579 -0.38803,0.31748 -0.8284,0.64339 -1.32226,0.97851 -0.49386,0.33512 -0.98857,0.65328 -1.48242,0.95313 -0.49386,0.2822 -0.9614,0.52858 -1.40235,0.74023 -0.42331,0.21165 -0.77639,0.36298 -1.05859,0.45117 -0.29984,0.0882 -0.51906,0.23757 -0.66016,0.44922 -0.1411,0.19402 -0.21289,0.39577 -0.21289,0.60742 0,0.22929 0.0795,0.44075 0.23828,0.63477 0.15874,0.17638 0.38961,0.26562 0.68946,0.26562 0.0882,0 0.18518,-0.01 0.29101,-0.0273 0.10583,-0.0353 0.28042,-0.0954 0.52734,-0.18359 0.54678,-0.17638 1.18311,-0.45963 1.90626,-0.84766 0.72314,-0.38803 1.44481,-0.82841 2.16796,-1.32227 0.72315,-0.51149 1.40411,-1.05857 2.03907,-1.64062 0.63496,-0.59969 1.13742,-1.19914 1.50781,-1.79883 0.2822,-0.45858 0.42187,-0.91837 0.42187,-1.37695 0,-0.5115 -0.20175,-0.95187 -0.60742,-1.32227 -0.38803,-0.37039 -0.93511,-0.55469 -1.64062,-0.55469 z m 46.3789,0.10547 c -0.2822,0 -0.49366,0.12417 -0.63476,0.3711 -0.1411,0.19401 -0.3351,0.45785 -0.58203,0.79297 -0.24693,0.31748 -0.51272,0.6531 -0.79493,1.00585 -0.2822,0.33512 -0.55574,0.66104 -0.82031,0.97852 -0.24693,0.29984 -0.44093,0.52876 -0.58203,0.6875 -0.1411,0.1411 -0.21094,0.31764 -0.21094,0.5293 0,0.21165 0.0795,0.40565 0.23828,0.58203 0.17638,0.15874 0.37038,0.23828 0.58204,0.23828 0.22929,0 0.41358,-0.097 0.55468,-0.29102 0.15874,-0.17637 0.3702,-0.415 0.63477,-0.71484 0.2822,-0.31748 0.56545,-0.6531 0.84766,-1.00586 0.2822,-0.35275 0.55574,-0.70388 0.82031,-1.05664 0.26456,-0.35276 0.47602,-0.65346 0.63476,-0.90039 0.0882,-0.12346 0.13282,-0.27284 0.13282,-0.44922 0,-0.22929 -0.0892,-0.41554 -0.26563,-0.55664 -0.15874,-0.1411 -0.34303,-0.21094 -0.55469,-0.21094 z m 141.88672,0.13282 c -0.29984,0 -0.66263,0.097 -1.08594,0.29101 -0.4233,0.17638 -0.8986,0.49259 -1.42773,0.95117 -0.45858,0.38803 -0.97075,0.85558 -1.53516,1.40235 -0.54677,0.52913 -1.18114,1.18292 -1.90429,1.95898 -0.70551,0.75843 -1.50868,1.65664 -2.40821,2.69727 -0.89952,1.04063 -1.91219,2.26671 -3.04101,3.67773 -0.61732,0.47622 -1.18187,0.89914 -1.69336,1.26953 -0.5115,0.3704 -0.91696,0.64394 -1.2168,0.82032 -0.0565,0.0377 -0.0825,0.0884 -0.12695,0.13085 -0.002,0.001 -0.004,6.8e-4 -0.006,0.002 -0.0353,0.0353 -0.12452,0.0799 -0.26563,0.13281 -0.12346,0.0353 -0.22821,0.0702 -0.3164,0.10547 0.33512,-0.37039 0.64357,-0.75064 0.92578,-1.13867 0.29984,-0.40567 0.55592,-0.80142 0.76758,-1.18946 0.22929,-0.38803 0.40583,-0.75857 0.52929,-1.11132 0.12347,-0.35276 0.1836,-0.67868 0.1836,-0.97852 0,-0.59969 -0.16684,-1.04201 -0.50196,-1.32422 -0.31748,-0.29984 -0.70547,-0.44922 -1.16406,-0.44922 -0.47622,0 -0.9263,0.14938 -1.34961,0.44922 -0.4233,0.28221 -0.8016,0.65275 -1.13672,1.11133 -0.33511,0.45858 -0.6009,0.96104 -0.79492,1.50781 -0.19401,0.54677 -0.29101,1.0764 -0.29101,1.58789 0,0.28221 0.0272,0.57321 0.0801,0.87305 0.0706,0.29984 0.185,0.60055 0.34374,0.90039 -0.84661,0.88189 -1.6129,1.51627 -2.30078,1.9043 -0.67023,0.37039 -1.26194,0.55664 -1.77343,0.55664 -0.26457,0 -0.47603,-0.0543 -0.63477,-0.16016 -0.15874,-0.12346 -0.23828,-0.30776 -0.23828,-0.55469 0,-0.26456 0.0892,-0.57302 0.26562,-0.92578 0.17638,-0.35275 0.4053,-0.71554 0.6875,-1.08594 0.29985,-0.38803 0.61606,-0.77603 0.95118,-1.16406 0.35275,-0.40567 0.70583,-0.78396 1.05859,-1.13672 1.48157,-1.48157 2.76974,-2.78719 3.86328,-3.91601 1.09354,-1.14646 2.00146,-2.14362 2.72461,-2.99024 0.74079,-0.84661 1.28787,-1.55082 1.64063,-2.11523 0.35275,-0.58205 0.52929,-1.04959 0.52929,-1.40234 0,-0.44095 -0.194,-0.66211 -0.58203,-0.66211 -0.35275,0 -0.75046,0.16878 -1.19141,0.5039 -0.44094,0.33512 -0.9434,0.82787 -1.50781,1.48047 -0.56441,0.63496 -1.20849,1.42067 -1.93164,2.35547 -0.72315,0.9348 -1.53406,2.0018 -2.43359,3.20117 -0.5115,0.52914 -1.06633,1.09368 -1.66602,1.69336 -0.58204,0.59969 -1.15629,1.16423 -1.7207,1.69336 -0.54677,0.52913 -1.03952,0.98697 -1.48047,1.375 -0.38601,0.32425 -0.67658,0.52889 -0.90039,0.65039 -0.0976,0.0306 -0.18697,0.0755 -0.26367,0.14258 -0.26457,0.21165 -0.62736,0.46773 -1.08594,0.76758 -0.44094,0.2822 -0.89103,0.56545 -1.34961,0.84765 -0.44094,0.26457 -0.85415,0.49349 -1.24219,0.6875 -0.38803,0.17638 -0.66157,0.26368 -0.82031,0.26368 -0.1411,0 -0.21094,-0.0427 -0.21094,-0.13086 0,-0.14111 0.0524,-0.27498 0.15821,-0.39844 0.12346,-0.12347 0.31746,-0.30001 0.58203,-0.5293 0.67023,-0.58205 1.23477,-1.0845 1.69336,-1.50781 0.45858,-0.44095 0.81941,-0.81924 1.08398,-1.13672 0.28221,-0.31748 0.48591,-0.59102 0.60938,-0.82031 0.12346,-0.22929 0.18359,-0.433 0.18359,-0.60938 0,-0.22929 -0.0776,-0.39612 -0.23633,-0.50195 -0.15874,-0.10583 -0.36244,-0.1582 -0.60937,-0.1582 -0.31748,0 -0.69578,0.16683 -1.13672,0.50195 -0.44095,0.33512 -0.87357,0.72312 -1.29688,1.16406 -0.4233,0.44095 -0.8113,0.87357 -1.16406,1.29688 -0.35275,0.4233 -0.59138,0.7143 -0.71484,0.87304 -0.33512,0.31748 -0.71341,0.62594 -1.13672,0.92579 -0.40567,0.2822 -0.80338,0.53828 -1.19141,0.76757 -0.38803,0.21166 -0.74111,0.3882 -1.05859,0.5293 -0.31748,0.1411 -0.5561,0.21094 -0.71485,0.21094 -0.22929,0 -0.34375,-0.10475 -0.34374,-0.31641 0,-0.51149 0.29099,-1.15558 0.87304,-1.93164 0.58205,-0.7937 1.37551,-1.56195 2.38086,-2.30273 1.00536,-0.74079 2.17906,-1.37517 3.51953,-1.9043 1.35811,-0.52913 2.80536,-0.79297 4.33985,-0.79297 0.2822,0 0.49366,-0.0892 0.63476,-0.26562 0.1411,-0.17638 0.21094,-0.37038 0.21094,-0.58203 0,-0.21166 -0.0698,-0.40566 -0.21094,-0.58204 -0.1411,-0.17637 -0.35256,-0.26367 -0.63476,-0.26367 -1.34048,0 -2.59372,0.15713 -3.75782,0.47461 -1.14645,0.29984 -2.20375,0.70726 -3.17382,1.21875 -0.95245,0.49386 -1.80799,1.0584 -2.56641,1.69336 -0.74079,0.61732 -1.37712,1.2517 -1.90625,1.9043 -0.14468,0.17959 -0.25843,0.35447 -0.38477,0.53125 -0.0481,0.0245 -0.0964,0.0425 -0.14453,0.0762 -0.26456,0.21165 -0.59048,0.45028 -0.97851,0.71484 -0.3704,0.26457 -0.78361,0.5284 -1.24219,0.79297 0.40567,-0.70551 0.73159,-1.4718 0.97852,-2.30078 0.26456,-0.84661 0.39648,-1.70215 0.39648,-2.56641 0.10583,-0.12346 0.21253,-0.25538 0.31836,-0.39648 0.12346,-0.1411 0.18359,-0.35256 0.18359,-0.63477 0,-0.47622 -0.10475,-0.81184 -0.3164,-1.00586 -0.21166,-0.21165 -0.4852,-0.31835 -0.82032,-0.31835 -0.29984,0 -0.56563,0.11641 -0.79492,0.3457 -0.22929,0.21165 -0.34375,0.49295 -0.34375,0.8457 0,0.0705 0.01,0.15785 0.0274,0.26367 0.0176,0.10583 0.0351,0.18537 0.0527,0.23828 -0.29984,0.24693 -0.7053,0.55539 -1.2168,0.92579 -0.49386,0.35275 -1.02348,0.71554 -1.58789,1.08593 -0.54677,0.3704 -1.09385,0.72348 -1.64062,1.0586 -0.54677,0.33512 -1.01431,0.61641 -1.40235,0.8457 -0.33511,0.19402 -0.50195,0.43264 -0.50195,0.71484 0,0.21166 0.0795,0.41341 0.23828,0.60743 0.15874,0.17637 0.36049,0.26562 0.60742,0.26562 0.0706,0 0.1501,-0.01 0.23829,-0.0273 0.0882,-0.0353 0.22981,-0.10511 0.42382,-0.21094 0.28221,-0.17638 0.60813,-0.38008 0.97852,-0.60937 0.38803,-0.2293 0.78574,-0.46597 1.1914,-0.7129 0.40567,-0.24692 0.82084,-0.51271 1.24415,-0.79492 0.44094,-0.2822 0.85415,-0.5635 1.24218,-0.8457 -0.15874,0.56441 -0.36049,1.10178 -0.60742,1.61328 -0.22929,0.5115 -0.46791,0.97128 -0.71484,1.37695 -0.24693,0.40567 -0.48555,0.73934 -0.71485,1.00391 -0.21165,0.26457 -0.37073,0.42365 -0.47656,0.47656 -0.12346,0.0705 -0.25538,0.13264 -0.39648,0.18555 -0.12347,0.0529 -0.28255,0.0801 -0.47657,0.0801 -0.21165,0 -0.44832,-0.0194 -0.71289,-0.0547 -0.24693,-0.0529 -0.50301,-0.0956 -0.76757,-0.13086 -0.26457,-0.0529 -0.52065,-0.0975 -0.76758,-0.13281 -0.24693,-0.0529 -0.47585,-0.0801 -0.6875,-0.0801 -0.31748,0 -0.56581,0.11446 -0.74219,0.34375 -0.19402,0.22929 -0.29102,0.47762 -0.29102,0.74219 0,0.24693 0.0718,0.44093 0.2129,0.58203 0.12346,0.15874 0.3,0.2732 0.52929,0.34375 0.24693,0.0882 0.52822,0.14056 0.84571,0.1582 0.33511,0.0176 0.6979,0.0274 1.08593,0.0274 0.89953,0 1.78028,-0.13192 2.64453,-0.39649 0.86426,-0.24693 1.66742,-0.55734 2.40821,-0.92773 0.47138,-0.23021 0.89557,-0.46905 1.29883,-0.71289 0.004,0.72512 0.14147,1.23735 0.41992,1.5332 0.2822,0.31748 0.67991,0.47656 1.1914,0.47656 0.35276,0 0.68838,-0.0446 1.00586,-0.13281 0.33512,-0.0706 0.64358,-0.16755 0.92578,-0.29102 0.28221,-0.12346 0.53829,-0.24567 0.76758,-0.36914 0.22929,-0.10582 0.42329,-0.20282 0.58203,-0.29101 0.0353,0.2822 0.15749,0.51112 0.36914,0.6875 0.21166,0.19401 0.55503,0.29101 1.03125,0.29101 0.44095,0 0.96282,-0.11446 1.5625,-0.34375 0.61733,-0.22929 1.23424,-0.51254 1.85157,-0.84765 0.61732,-0.35276 1.21678,-0.7233 1.79882,-1.11133 0.23687,-0.15791 0.39586,-0.28346 0.60352,-0.42969 -0.0281,0.14586 -0.0488,0.30343 -0.0488,0.48438 0,0.67023 0.23087,1.1979 0.68946,1.58593 0.47622,0.38804 1.08343,0.58203 1.82421,0.58203 0.52914,0 1.0413,-0.0873 1.53516,-0.26367 0.49386,-0.17637 0.9614,-0.39754 1.40234,-0.66211 0.45859,-0.2822 0.8815,-0.59841 1.26953,-0.95117 0.40567,-0.35275 0.76846,-0.70584 1.08594,-1.05859 0.3704,0.22929 0.79331,0.34375 1.26953,0.34375 0.29985,0 0.58114,-0.0446 0.84571,-0.13281 0.004,-0.002 0.006,-0.004 0.01,-0.006 -0.16453,0.37115 -0.27344,0.71 -0.27344,0.98437 0,0.45858 0.12222,0.82137 0.36915,1.08594 0.24692,0.26457 0.60001,0.39648 1.05859,0.39648 0.37039,0 0.82047,-0.11446 1.34961,-0.34375 0.54677,-0.22929 1.1016,-0.50283 1.66601,-0.82031 0.40253,-0.239 0.76617,-0.4778 1.13282,-0.7168 -0.0763,0.25755 -0.12696,0.50645 -0.12696,0.74219 0,0.40567 0.12417,0.74129 0.3711,1.00586 0.24693,0.26457 0.57284,0.39648 0.97851,0.39648 0.44095,1e-5 0.97832,-0.13967 1.61328,-0.42187 0.63497,-0.2822 1.26159,-0.61008 1.87891,-0.98047 0.45229,-0.26383 0.84555,-0.52718 1.24414,-0.79101 3.6e-4,0.66932 0.1769,1.22356 0.5293,1.66406 0.37039,0.45858 0.95239,0.68945 1.74609,0.68945 1.00536,0 2.1519,-0.31816 3.43945,-0.95312 1.28756,-0.6526 2.60094,-1.48098 3.94141,-2.48633 0.0114,-0.009 0.0145,-0.0203 0.0254,-0.0293 0.0203,-0.0118 0.0312,-0.01 0.0527,-0.0234 0.19401,-0.12346 0.53934,-0.35433 1.0332,-0.68945 0.5115,-0.35276 1.05858,-0.74851 1.64062,-1.18945 0.59969,-0.45859 1.19915,-0.93583 1.79883,-1.42969 0.61733,-0.49386 1.12754,-0.9614 1.53321,-1.40234 0.29984,0.1411 0.60054,0.25556 0.90039,0.34375 -0.35276,0.24693 -0.83001,0.61747 -1.42969,1.11132 -0.59969,0.47622 -1.19914,1.01555 -1.79883,1.61524 -0.58205,0.58205 -1.09226,1.1815 -1.5332,1.79883 -0.42331,0.61732 -0.63477,1.18961 -0.63477,1.71875 0,0.40567 0.12221,0.71412 0.36914,0.92578 0.24693,0.22929 0.58255,0.3457 1.00586,0.3457 0.42331,0 0.94323,-0.14162 1.56055,-0.42383 0.61732,-0.26456 1.23424,-0.57302 1.85156,-0.92578 0.61732,-0.35275 1.17411,-0.70584 1.66797,-1.05859 0.5115,-0.3704 0.86458,-0.63618 1.05859,-0.79492 0.17638,-0.17638 0.26368,-0.36068 0.26368,-0.55469 0,-0.22929 -0.0873,-0.42329 -0.26368,-0.58203 -0.17637,-0.17638 -0.38783,-0.26367 -0.63476,-0.26367 -0.21166,0 -0.40566,0.0776 -0.58203,0.23632 -0.3704,0.33512 -0.79527,0.66299 -1.27149,0.98047 -0.45858,0.31748 -0.90866,0.59878 -1.34961,0.84571 -0.4233,0.22929 -0.79189,0.42329 -1.10937,0.58203 -0.31748,0.1411 -0.51148,0.21093 -0.58203,0.21093 -0.0705,0 -0.10742,-0.0427 -0.10742,-0.13086 0,-0.10582 0.11445,-0.29982 0.34374,-0.58203 0.24693,-0.29984 0.5651,-0.65292 0.95313,-1.05859 0.40567,-0.40567 0.8635,-0.84605 1.375,-1.32227 0.5115,-0.47622 1.05082,-0.95346 1.61523,-1.42968 0.45859,-0.40567 0.7845,-0.71413 0.97852,-0.92578 0.19402,-0.2293 0.29102,-0.49313 0.29102,-0.79297 0,-0.5115 -0.26384,-0.79475 -0.79297,-0.84766 -0.26457,-0.0353 -0.5129,-0.0876 -0.74219,-0.1582 -0.22929,-0.0705 -0.44075,-0.15009 -0.63477,-0.23828 -0.0353,-0.45859 -0.16719,-0.7845 -0.39648,-0.97852 -0.21165,-0.21165 -0.45028,-0.31836 -0.71484,-0.31836 -0.28221,0 -0.54604,0.097 -0.79297,0.29102 -0.22929,0.19401 -0.34375,0.46755 -0.34375,0.82031 0,0.1411 0.0446,0.32735 0.13281,0.55664 -0.33512,0.29984 -0.75028,0.66068 -1.24414,1.08398 -0.49386,0.40567 -1.01378,0.82084 -1.56055,1.24415 -0.52913,0.4233 -1.051,0.81905 -1.5625,1.18945 -0.51149,0.35275 -0.94216,0.62629 -1.29492,0.82031 -0.0899,0.0499 -0.16104,0.10867 -0.22266,0.16992 -0.82539,0.6027 -1.56547,1.09702 -2.21093,1.47071 -0.6526,0.38803 -1.2346,0.69649 -1.7461,0.92578 -0.49386,0.22929 -0.91873,0.38837 -1.27148,0.47656 -0.35276,0.0705 -0.65151,0.10547 -0.89844,0.10547 -0.49386,0 -0.74219,-0.21146 -0.74219,-0.63477 0,-0.22929 0.0795,-0.52029 0.23828,-0.87304 0.72315,-0.0529 1.4914,-0.212 2.30274,-0.47657 0.81134,-0.2822 1.55242,-0.62558 2.22265,-1.03125 0.68788,-0.40567 1.25242,-0.8635 1.69336,-1.375 0.45859,-0.52913 0.6875,-1.07621 0.6875,-1.64062 0,-0.54677 -0.17654,-1.01431 -0.52929,-1.40235 -0.33512,-0.40566 -0.82983,-0.60937 -1.48242,-0.60937 -0.67024,0 -1.30462,0.16879 -1.9043,0.50391 -0.58205,0.31748 -1.12913,0.72293 -1.64063,1.21679 -0.49385,0.47622 -0.93423,0.99614 -1.32226,1.56055 -0.38653,0.54466 -0.71059,1.05465 -0.97461,1.5293 -0.0633,0.0101 -0.12474,0.0237 -0.18164,0.0488 -0.0639,0.0221 -0.1218,0.0585 -0.17578,0.10547 -0.005,0.004 -0.0123,0.005 -0.0176,0.01 -0.47622,0.37039 -0.96122,0.72347 -1.45508,1.05859 -0.47622,0.31748 -0.9263,0.59878 -1.34961,0.84571 -0.40567,0.24692 -0.75875,0.44092 -1.05859,0.58203 -0.28221,0.1411 -0.47621,0.21093 -0.58203,0.21093 -0.0882,0 -0.13086,-0.0349 -0.13086,-0.10546 0,-0.12347 0.13967,-0.35239 0.42187,-0.6875 0.84662,-1.00536 1.64978,-1.88611 2.40821,-2.64454 0.75842,-0.75842 1.48204,-1.47429 2.16992,-2.14453 l 0.42382,-0.42187 c 0.15875,-0.15874 0.23633,-0.36245 0.23633,-0.60938 0,-0.29984 -0.0776,-0.52876 -0.23633,-0.6875 -0.15874,-0.15874 -0.35273,-0.23828 -0.58203,-0.23828 -0.22929,0 -0.46016,0.0873 -0.68945,0.26367 -0.58205,0.44095 -1.12718,0.90074 -1.63867,1.37696 -0.5115,0.45858 -0.9965,0.89896 -1.45508,1.32226 -0.44094,0.40567 -0.85611,0.77621 -1.24414,1.11133 -0.38803,0.31748 -0.75082,0.5561 -1.08594,0.71484 -0.15482,0.082 -0.26691,0.17266 -0.34179,0.27344 -0.27575,0.20039 -0.55549,0.40273 -0.875,0.625 -0.38804,0.26457 -0.76633,0.5129 -1.13672,0.74219 -0.35276,0.22929 -0.67868,0.42329 -0.97852,0.58203 -0.29984,0.1411 -0.52876,0.21094 -0.6875,0.21094 -0.12346,0 -0.18555,-0.0524 -0.18555,-0.1582 0,-0.19402 0.15909,-0.49473 0.47657,-0.9004 0.21165,-0.2822 0.48324,-0.62558 0.81836,-1.03125 0.35275,-0.4233 0.733,-0.86368 1.13867,-1.32226 1.5874,-1.21701 2.9454,-2.28596 4.07422,-3.20313 1.12882,-0.91716 2.08136,-1.71837 2.85742,-2.40625 0.77606,-0.68787 1.41044,-1.27958 1.9043,-1.77343 0.49385,-0.5115 0.91677,-0.97904 1.26953,-1.40235 0.31748,-0.40567 0.5561,-0.79367 0.71484,-1.16406 0.15874,-0.37039 0.23828,-0.70406 0.23828,-1.00391 0,-0.33511 -0.0873,-0.6009 -0.26367,-0.79492 -0.17638,-0.21165 -0.43246,-0.3164 -0.76758,-0.3164 z m -118.57812,1.375 c -0.17638,0 -0.37038,0.0698 -0.58203,0.21093 -0.19402,0.12347 -0.38802,0.28255 -0.58204,0.47657 -0.40566,0.40566 -0.83829,0.86545 -1.29687,1.37695 -0.44095,0.49386 -0.90073,1.03123 -1.37695,1.61328 -0.54678,0 -1.07445,-0.01 -1.58594,-0.0273 -0.49386,-0.0353 -0.92648,-0.0527 -1.29688,-0.0527 -0.29984,0 -0.52876,0.097 -0.6875,0.29102 -0.15874,0.17638 -0.23828,0.38008 -0.23828,0.60937 0,0.19402 0.0621,0.37056 0.18555,0.5293 0.12346,0.1411 0.31746,0.2284 0.58203,0.26367 0.19402,0.0176 0.42293,0.0351 0.6875,0.0527 0.28221,0.0176 0.55575,0.0273 0.82031,0.0273 -0.26456,0.2822 -0.55556,0.5732 -0.87304,0.87305 l -0.95313,0.89843 c -0.95244,0.89953 -1.92244,1.75507 -2.91016,2.56641 -0.98771,0.7937 -1.88788,1.44749 -2.69921,1.95898 -0.0346,0.0216 -0.0595,0.0468 -0.0898,0.0703 -0.005,0.003 -0.0105,0.004 -0.0156,0.008 -0.26457,0.21165 -0.59049,0.45028 -0.97852,0.71484 -0.37039,0.26457 -0.78556,0.5284 -1.24414,0.79297 0.40567,-0.70551 0.73354,-1.4718 0.98047,-2.30078 0.26457,-0.84661 0.39648,-1.70215 0.39648,-2.56641 0.10583,-0.12346 0.21058,-0.25538 0.31641,-0.39648 0.12347,-0.1411 0.18555,-0.35256 0.18555,-0.63477 0,-0.47622 -0.10476,-0.81184 -0.31641,-1.00586 -0.21165,-0.21165 -0.48519,-0.31835 -0.82031,-0.31835 -0.29984,0 -0.56563,0.11641 -0.79492,0.3457 -0.22929,0.21165 -0.34375,0.49295 -0.34375,0.8457 0,0.0705 0.01,0.15785 0.0273,0.26367 0.0176,0.10583 0.0351,0.18537 0.0527,0.23828 -0.29985,0.24693 -0.70531,0.55539 -1.2168,0.92579 -0.49386,0.35275 -1.02348,0.71554 -1.58789,1.08593 -0.54677,0.3704 -1.09386,0.72348 -1.64063,1.0586 -0.52395,0.32113 -0.96556,0.58659 -1.34375,0.81054 -0.088,0.0308 -0.17054,0.0762 -0.24414,0.14063 -0.86425,0.63496 -1.63054,1.14712 -2.30078,1.53516 -0.6526,0.38803 -1.2346,0.69649 -1.74609,0.92578 -0.49386,0.22929 -0.91678,0.38837 -1.26953,0.47656 -0.35276,0.0705 -0.65347,0.10547 -0.90039,0.10547 -0.49386,0 -0.74024,-0.21146 -0.74024,-0.63477 0,-0.22929 0.0795,-0.52029 0.23828,-0.87304 0.72315,-0.0529 1.48944,-0.212 2.30078,-0.47657 0.81134,-0.2822 1.55242,-0.62558 2.22266,-1.03125 0.68787,-0.40567 1.25241,-0.8635 1.69336,-1.375 0.45858,-0.52913 0.6875,-1.07621 0.6875,-1.64062 0,-0.54677 -0.17654,-1.01431 -0.5293,-1.40235 -0.33512,-0.40566 -0.82787,-0.60937 -1.48047,-0.60937 -0.67023,0 -1.30656,0.16879 -1.90625,0.50391 -0.58204,0.31748 -1.12717,0.72293 -1.63867,1.21679 -0.49386,0.47622 -0.93619,0.99614 -1.32422,1.56055 -0.38803,0.54677 -0.71395,1.05894 -0.97851,1.53516 -0.19402,0 -0.3531,0.0873 -0.47657,0.26367 -0.12346,0.17638 -0.18554,0.35292 -0.18554,0.52929 v 0.18555 c 0,0.0705 0.01,0.12293 0.0273,0.1582 -0.19401,0.56441 -0.29101,1.04941 -0.29101,1.45508 0,0.67024 0.17654,1.22507 0.52929,1.66602 0.3704,0.45858 0.9524,0.68945 1.7461,0.68945 1.00535,0 2.15189,-0.31816 3.43945,-0.95312 1.28756,-0.6526 2.60093,-1.48098 3.94141,-2.48633 0.01,-0.008 0.0121,-0.0177 0.0215,-0.0254 0.0436,-0.0229 0.0605,-0.027 0.11133,-0.0547 0.2822,-0.17638 0.60812,-0.38008 0.97851,-0.60937 0.38804,-0.2293 0.78574,-0.46597 1.19141,-0.7129 0.40567,-0.24692 0.81888,-0.51271 1.24219,-0.79492 0.44094,-0.2822 0.85611,-0.5635 1.24414,-0.8457 -0.15874,0.56441 -0.36245,1.10178 -0.60938,1.61328 -0.22929,0.5115 -0.46596,0.97128 -0.71289,1.37695 -0.24693,0.40567 -0.48555,0.73934 -0.71484,1.00391 -0.21165,0.26457 -0.37074,0.42365 -0.47656,0.47656 -0.12347,0.0705 -0.25539,0.13264 -0.39649,0.18555 -0.12346,0.0529 -0.28254,0.0801 -0.47656,0.0801 -0.21165,0 -0.45028,-0.0194 -0.71484,-0.0547 -0.24693,-0.0529 -0.50106,-0.0956 -0.76563,-0.13086 -0.26457,-0.0529 -0.52065,-0.0975 -0.76758,-0.13281 -0.24693,-0.0529 -0.4778,-0.0801 -0.68945,-0.0801 -0.31748,0 -0.56386,0.11446 -0.74023,0.34375 -0.19402,0.22929 -0.29102,0.47762 -0.29102,0.74219 0,0.24693 0.0718,0.44093 0.21289,0.58203 0.12346,0.15874 0.29805,0.2732 0.52734,0.34375 0.24693,0.0882 0.53018,0.14056 0.84766,0.1582 0.33512,0.0176 0.69595,0.0274 1.08398,0.0274 0.89953,0 1.78224,-0.13192 2.64649,-0.39649 0.86425,-0.24693 1.66741,-0.55734 2.4082,-0.92773 0.75843,-0.3704 1.42772,-0.7584 2.00977,-1.16407 0.59968,-0.40566 1.08468,-0.75679 1.45508,-1.05664 0.01,-0.009 0.0124,-0.0186 0.0215,-0.0273 0.0551,-0.0282 0.10757,-0.0448 0.16406,-0.0801 -0.47622,0.52914 -0.71484,1.12859 -0.71484,1.79883 0,0.45858 0.13192,0.85629 0.39648,1.19141 0.28221,0.33511 0.73229,0.50195 1.34961,0.50195 0.38803,0 0.90795,-0.13967 1.56055,-0.42188 0.67024,-0.2822 1.34923,-0.61007 2.03711,-0.98046 0.68787,-0.38804 1.3145,-0.77604 1.8789,-1.16407 0.58205,-0.38803 0.97976,-0.68678 1.19141,-0.89843 0.17638,-0.17638 0.26367,-0.36263 0.26367,-0.55664 0,-0.21166 -0.0873,-0.39595 -0.26367,-0.55469 -0.17638,-0.15874 -0.38784,-0.23828 -0.63476,-0.23828 -0.21166,0 -0.42312,0.0795 -0.63477,0.23828 -0.33512,0.2822 -0.75999,0.59066 -1.27148,0.92578 -0.49386,0.31748 -0.98661,0.61818 -1.48047,0.90039 -0.49386,0.26457 -0.94394,0.49348 -1.34961,0.6875 -0.38803,0.17638 -0.65187,0.26367 -0.79297,0.26367 -0.21165,0 -0.31836,-0.10475 -0.31836,-0.31641 0,-0.21165 0.13192,-0.53757 0.39648,-0.97851 0.28221,-0.44095 0.645,-0.93565 1.08594,-1.48242 0.44095,-0.56441 0.92595,-1.15612 1.45508,-1.77344 0.54677,-0.63496 1.08415,-1.24217 1.61328,-1.82422 0.52913,-0.59968 1.02189,-1.14677 1.48047,-1.64062 0.47622,-0.5115 0.85647,-0.92666 1.13867,-1.24414 1.56977,0 2.62706,-0.0621 3.17383,-0.18555 0.26457,-0.0529 0.45857,-0.14991 0.58203,-0.29102 0.12347,-0.1411 0.18555,-0.30793 0.18555,-0.50195 0,-0.22929 -0.0795,-0.43104 -0.23828,-0.60742 -0.15874,-0.19402 -0.38766,-0.29102 -0.6875,-0.29102 -0.15874,0 -0.3605,0.0175 -0.60743,0.0527 -0.24692,0.0353 -0.49525,0.0605 -0.74218,0.0781 0.38803,-0.38803 0.74111,-0.74886 1.05859,-1.08398 0.33512,-0.35276 0.60866,-0.67868 0.82031,-0.97852 0.10583,-0.17638 0.19508,-0.33546 0.26563,-0.47656 0.0705,-0.1411 0.10547,-0.28273 0.10547,-0.42383 0,-0.22929 -0.0718,-0.38837 -0.21289,-0.47656 -0.12347,-0.10583 -0.2806,-0.1582 -0.47461,-0.1582 z m -48.46875,1.74609 c -0.3704,0 -0.69827,0.15908 -0.98047,0.47656 -0.26457,0.31748 -0.39649,0.65311 -0.39649,1.00586 0,0.26457 0.10671,0.50124 0.31836,0.71289 0.21166,0.19402 0.57249,0.29102 1.08399,0.29102 0.45858,0 0.82137,-0.0524 1.08593,-0.15821 0.26457,-0.12346 0.39649,-0.33492 0.39649,-0.63476 0,-0.1411 -0.0446,-0.30794 -0.13281,-0.50195 -0.0705,-0.19402 -0.17531,-0.38027 -0.31641,-0.55664 -0.1411,-0.17638 -0.30018,-0.32576 -0.47656,-0.44922 -0.17638,-0.12347 -0.37038,-0.18555 -0.58203,-0.18555 z m 168.58008,0 c -0.3704,0 -0.69632,0.15908 -0.97852,0.47656 -0.26457,0.31748 -0.39648,0.65311 -0.39648,1.00586 0,0.26457 0.1067,0.50124 0.31835,0.71289 0.21166,0.19402 0.57249,0.29102 1.08399,0.29102 0.45858,0 0.81942,-0.0524 1.08398,-0.15821 0.26457,-0.12346 0.39844,-0.33492 0.39844,-0.63476 0,-0.1411 -0.0446,-0.30794 -0.13281,-0.50195 -0.0706,-0.19402 -0.17726,-0.38027 -0.31836,-0.55664 -0.1411,-0.17638 -0.30019,-0.32576 -0.47656,-0.44922 -0.17638,-0.12347 -0.37038,-0.18555 -0.58203,-0.18555 z m -93.09961,4.10156 c -1.34048,0 -2.59372,0.15713 -3.75782,0.47461 -1.14645,0.29984 -2.20375,0.70726 -3.17383,1.21875 -0.95244,0.49386 -1.80798,1.0584 -2.5664,1.69336 -0.74079,0.61732 -1.37516,1.2517 -1.9043,1.9043 -0.19936,0.24749 -0.36672,0.49029 -0.53125,0.73242 -0.0169,0.0146 -0.0338,0.0194 -0.0508,0.0352 -0.1411,0.12346 -0.4321,0.35238 -0.87305,0.6875 -0.4233,0.31748 -0.85593,0.61623 -1.29687,0.89843 0.59968,-0.52913 1.09244,-1.02188 1.48047,-1.48047 0.38803,-0.45858 0.68873,-0.87374 0.90039,-1.24414 0.21165,-0.38803 0.35328,-0.74111 0.42383,-1.05859 0.0882,-0.31748 0.13086,-0.60848 0.13086,-0.87305 0,-0.4233 -0.0698,-0.77639 -0.21094,-1.05859 -0.1411,-0.28221 -0.3351,-0.50142 -0.58203,-0.66016 -0.22929,-0.17637 -0.50284,-0.30054 -0.82032,-0.37109 -0.29984,-0.0706 -0.62576,-0.10547 -0.97851,-0.10547 -0.6526,0 -1.30639,0.10671 -1.95899,0.31836 -0.63496,0.19402 -1.26933,0.47531 -1.90429,0.8457 0.12346,-0.21165 0.18554,-0.39594 0.18554,-0.55468 0,-0.33512 -0.18429,-0.50391 -0.55468,-0.50391 -0.24693,0 -0.4778,0.13192 -0.68946,0.39648 -0.19401,0.24693 -0.37831,0.48556 -0.55468,0.71485 -0.98772,0.9348 -1.93251,1.69334 -2.83204,2.27539 -0.89952,0.56441 -1.70073,1.09403 -2.40624,1.58789 -0.29985,0.19401 -0.44922,0.45785 -0.44922,0.79297 0,0.19401 0.0601,0.37055 0.18359,0.52929 0.1411,0.15874 0.3351,0.23829 0.58203,0.23829 0.21165,0 0.44253,-0.0621 0.68945,-0.18555 0.0882,-0.0353 0.17549,-0.0876 0.26368,-0.1582 0.0882,-0.0706 0.18519,-0.1501 0.29101,-0.23829 -0.49386,0.61733 -1.04869,1.29633 -1.66601,2.03711 -0.61733,0.72315 -1.2362,1.45453 -1.85352,2.19532 -0.63496,0.75842 -1.23442,1.49175 -1.79883,2.19726 -0.58204,0.72315 -1.06704,1.37499 -1.45508,1.95703 -0.47622,0.72315 -0.71289,1.26053 -0.71289,1.61328 0,0.38804 0.23667,0.58204 0.71289,0.58204 0.31748,0 0.60848,-0.11446 0.87305,-0.34375 0.24693,-0.21166 0.55539,-0.56474 0.92578,-1.0586 l 1.82617,-2.43359 c 0.63497,-0.84662 1.27905,-1.69245 1.93164,-2.53906 0.6526,-0.84662 1.30444,-1.67695 1.95704,-2.48829 0.65259,-0.82897 1.28892,-1.60497 1.90625,-2.32812 0.51149,-0.54677 1.04887,-1.05698 1.61328,-1.5332 0.58204,-0.47622 1.14659,-0.88168 1.69336,-1.2168 0.56441,-0.35276 1.10178,-0.6263 1.61328,-0.82031 0.51149,-0.19402 0.97128,-0.29102 1.37695,-0.29102 0.44095,0 0.70478,0.097 0.79297,0.29102 0.0882,0.17637 0.13281,0.35292 0.13281,0.52929 0,0.47622 -0.13387,0.95152 -0.39844,1.42774 -0.26456,0.45858 -0.60794,0.90866 -1.03124,1.34961 -0.42331,0.4233 -0.89085,0.82101 -1.40235,1.1914 -0.51149,0.3704 -1.02171,0.69631 -1.5332,0.97852 -0.5115,0.26457 -0.98874,0.48378 -1.42969,0.66016 -0.42331,0.15874 -0.76668,0.24798 -1.03125,0.26562 -0.0353,-0.0176 -0.0876,-0.07 -0.1582,-0.1582 -0.0529,-0.0882 -0.14216,-0.18519 -0.26563,-0.29102 -0.10582,-0.10582 -0.23774,-0.19507 -0.39648,-0.26562 -0.15874,-0.0882 -0.34499,-0.13282 -0.55664,-0.13282 -0.21166,0 -0.40566,0.0446 -0.58203,0.13282 -0.15874,0.0882 -0.29841,0.20264 -0.42188,0.34375 -0.10583,0.12346 -0.19507,0.25538 -0.26562,0.39648 -0.0705,0.1411 -0.10547,0.27497 -0.10547,0.39844 0,0.26457 0.0621,0.47602 0.18554,0.63476 0.14111,0.17638 0.30794,0.3083 0.50196,0.39649 0.21165,0.10583 0.42311,0.17566 0.63476,0.21094 0.22929,0.0353 0.44075,0.0527 0.63477,0.0527 h 0.3457 c 0.10583,0 0.21058,-0.008 0.31641,-0.0254 0.24693,0.10583 0.50301,0.17566 0.76758,0.21094 0.2822,0.0529 0.55574,0.0801 0.82031,0.0801 0.74079,0 1.48187,-0.14163 2.22265,-0.42383 0.74079,-0.28221 1.445,-0.62558 2.11524,-1.03125 0.40636,-0.23965 0.78516,-0.48828 1.14844,-0.74024 0.0262,0.6231 0.16109,1.07888 0.41406,1.34766 0.2822,0.31748 0.67796,0.47656 1.18945,0.47656 0.35276,0 0.68838,-0.0446 1.00586,-0.13281 0.33512,-0.0706 0.64358,-0.16755 0.92578,-0.29102 0.28221,-0.12346 0.53829,-0.24567 0.76758,-0.36914 0.22929,-0.10582 0.42329,-0.20282 0.58203,-0.29101 0.0353,0.2822 0.15749,0.51112 0.36914,0.6875 0.21166,0.19401 0.55699,0.29101 1.03321,0.29101 0.44094,0 0.96086,-0.11446 1.56054,-0.34375 0.61733,-0.22929 1.23424,-0.51254 1.85157,-0.84765 0.61732,-0.35276 1.21678,-0.7233 1.79882,-1.11133 0.58205,-0.38803 1.07676,-0.73916 1.48243,-1.05664 0.019,-0.0143 0.0256,-0.0338 0.043,-0.0488 0.0263,-0.0141 0.0339,-0.0156 0.0625,-0.0312 0.28221,-0.17638 0.60813,-0.38008 0.97852,-0.60937 0.38803,-0.2293 0.78574,-0.46597 1.19141,-0.7129 0.40567,-0.24692 0.81888,-0.51271 1.24218,-0.79492 0.44095,-0.2822 0.85611,-0.5635 1.24414,-0.8457 -0.15874,0.56441 -0.36244,1.10178 -0.60937,1.61328 -0.22929,0.5115 -0.46596,0.97128 -0.71289,1.37695 -0.24693,0.40567 -0.48555,0.73934 -0.71484,1.00391 -0.21166,0.26457 -0.37074,0.42365 -0.47657,0.47656 -0.12346,0.0705 -0.25538,0.13264 -0.39648,0.18555 -0.12347,0.0529 -0.28255,0.0801 -0.47656,0.0801 -0.21166,0 -0.45028,-0.0194 -0.71485,-0.0547 -0.24693,-0.0529 -0.50106,-0.0956 -0.76562,-0.13086 -0.26457,-0.0529 -0.52065,-0.0975 -0.76758,-0.13281 -0.24693,-0.0529 -0.47585,-0.0801 -0.6875,-0.0801 -0.31748,0 -0.56581,0.11446 -0.74219,0.34375 -0.19401,0.22929 -0.29101,0.47762 -0.29101,0.74219 0,0.24693 0.0718,0.44093 0.21289,0.58203 0.12346,0.15874 0.3,0.2732 0.52929,0.34375 0.24693,0.0882 0.52823,0.14056 0.84571,0.1582 0.33511,0.0176 0.69595,0.0274 1.08398,0.0274 0.89953,0 1.78223,-0.13192 2.64649,-0.39649 0.86425,-0.24693 1.66741,-0.55734 2.4082,-0.92773 0.75842,-0.3704 1.42772,-0.7584 2.00976,-1.16407 0.59969,-0.40566 1.08469,-0.75679 1.45508,-1.05664 0.19402,-0.17637 0.29102,-0.37037 0.29102,-0.58203 0,-0.22929 -0.0873,-0.43299 -0.26367,-0.60937 -0.15874,-0.17638 -0.36245,-0.26367 -0.60938,-0.26367 -0.17638,0 -0.35292,0.0601 -0.5293,0.18359 -0.26456,0.21165 -0.59048,0.45028 -0.97851,0.71484 -0.3704,0.26457 -0.78556,0.5284 -1.24414,0.79297 0.40567,-0.70551 0.73354,-1.4718 0.98047,-2.30078 0.26456,-0.84661 0.39648,-1.70215 0.39648,-2.56641 0.10583,-0.12346 0.21058,-0.25538 0.31641,-0.39648 0.12346,-0.1411 0.18554,-0.35256 0.18554,-0.63477 0,-0.47622 -0.10475,-0.81184 -0.3164,-1.00586 -0.21166,-0.21165 -0.4852,-0.31835 -0.82032,-0.31835 -0.29984,0 -0.56563,0.11641 -0.79492,0.3457 -0.22929,0.21165 -0.34375,0.49295 -0.34375,0.8457 0,0.0705 0.01,0.15785 0.0274,0.26367 0.0176,0.10583 0.0351,0.18537 0.0527,0.23828 -0.29984,0.24693 -0.7053,0.55539 -1.2168,0.92579 -0.49385,0.35275 -1.02348,0.71554 -1.58789,1.08593 -0.54677,0.3704 -1.09385,0.72348 -1.64062,1.0586 -0.52161,0.31969 -0.96075,0.58325 -1.33789,0.80664 -0.10198,0.0304 -0.19584,0.0749 -0.27539,0.14453 -0.26457,0.21165 -0.62736,0.46773 -1.08594,0.76758 -0.44094,0.2822 -0.88907,0.56545 -1.34766,0.84765 -0.44094,0.26457 -0.85611,0.49349 -1.24414,0.6875 -0.38803,0.17638 -0.66157,0.26368 -0.82031,0.26368 -0.1411,0 -0.21094,-0.0427 -0.21094,-0.13086 0,-0.14111 0.0524,-0.27498 0.15821,-0.39844 0.12346,-0.12347 0.31746,-0.30001 0.58203,-0.5293 0.67023,-0.58205 1.23477,-1.0845 1.69336,-1.50781 0.45858,-0.44095 0.81941,-0.81924 1.08398,-1.13672 0.28221,-0.31748 0.48591,-0.59102 0.60938,-0.82031 0.12346,-0.22929 0.18554,-0.433 0.18554,-0.60938 0,-0.22929 -0.0795,-0.39612 -0.23828,-0.50195 -0.15874,-0.10583 -0.36244,-0.1582 -0.60937,-0.1582 -0.31748,0 -0.69578,0.16683 -1.13672,0.50195 -0.44095,0.33512 -0.87357,0.72312 -1.29688,1.16406 -0.4233,0.44095 -0.8113,0.87357 -1.16406,1.29688 -0.35276,0.4233 -0.59138,0.7143 -0.71484,0.87304 -0.33512,0.31748 -0.71341,0.62594 -1.13672,0.92579 -0.40567,0.2822 -0.80338,0.53828 -1.19141,0.76757 -0.38803,0.21166 -0.74111,0.3882 -1.05859,0.5293 -0.31748,0.1411 -0.55415,0.21094 -0.71289,0.21094 -0.22929,0 -0.34375,-0.10475 -0.34375,-0.31641 0,-0.51149 0.291,-1.15558 0.87304,-1.93164 0.58205,-0.7937 1.37551,-1.56195 2.38086,-2.30273 1.00536,-0.74079 2.17711,-1.37517 3.51758,-1.9043 1.35811,-0.52913 2.80536,-0.79297 4.33985,-0.79297 0.2822,0 0.49366,-0.0892 0.63476,-0.26562 0.1411,-0.17638 0.21094,-0.37038 0.21094,-0.58203 0,-0.21166 -0.0698,-0.40566 -0.21094,-0.58204 -0.1411,-0.17637 -0.35256,-0.26367 -0.63476,-0.26367 z M 180.25,232.70508 c -0.21165,0 -0.52786,0.0892 -0.95117,0.26562 -0.42331,0.17638 -0.90056,0.4053 -1.42969,0.6875 -0.5115,0.26457 -1.03917,0.56528 -1.58594,0.90039 -0.54677,0.31748 -1.05893,0.6337 -1.53515,0.95118 0.44094,-0.5115 0.73969,-0.88979 0.89843,-1.13672 0.17638,-0.24693 0.26563,-0.47585 0.26563,-0.6875 0,-0.19402 -0.0795,-0.34535 -0.23828,-0.45117 -0.1411,-0.12347 -0.30019,-0.18555 -0.47656,-0.18555 -0.2293,0 -0.47567,0.11641 -0.74024,0.3457 -0.26457,0.22929 -0.52065,0.44075 -0.76758,0.63477 -0.29984,0.24693 -0.65292,0.52047 -1.05859,0.82031 -0.40567,0.29984 -0.82859,0.6083 -1.26953,0.92578 -0.42331,0.31748 -0.85593,0.62594 -1.29688,0.92578 -0.44094,0.29984 -0.85415,0.57339 -1.24218,0.82031 -0.19402,0.12347 -0.32789,0.24568 -0.39844,0.36914 -0.0529,0.10583 -0.0781,0.22029 -0.0781,0.34376 0,0.2822 0.0795,0.50336 0.23828,0.6621 0.17638,0.15874 0.38784,0.23829 0.63477,0.23829 0.15874,0 0.30812,-0.0446 0.44922,-0.13282 l 0.26562,-0.1582 c 0.0882,-0.0705 0.18519,-0.14039 0.29102,-0.21094 -0.63496,0.58205 -1.07729,1.03018 -1.32422,1.34766 -0.24693,0.31748 -0.36914,0.63564 -0.36914,0.95312 0,0.21166 0.0601,0.37074 0.18359,0.47657 0.14111,0.10582 0.27498,0.1582 0.39844,0.1582 0.24693,0 0.46614,-0.0795 0.66016,-0.23828 0.21165,-0.17638 0.41536,-0.34321 0.60937,-0.50196 1.11118,-0.98771 2.27518,-1.92279 3.49219,-2.80468 1.23465,-0.89953 2.5131,-1.72015 3.83594,-2.46094 -0.49386,0.6526 -1.04094,1.25206 -1.64063,1.79883 -0.59968,0.52913 -1.09243,1.07621 -1.48047,1.64062 -0.19401,0.29985 -0.32788,0.55593 -0.39843,0.76758 -0.0705,0.21165 -0.10547,0.47549 -0.10547,0.79297 0,0.40567 0.13191,0.73354 0.39648,0.98047 0.28221,0.26457 0.64499,0.39648 1.08594,0.39648 0.49386,0 1.0584,-0.12416 1.69336,-0.37109 0.6526,-0.24693 1.28697,-0.53793 1.9043,-0.87305 0.61732,-0.33512 1.17215,-0.67074 1.66601,-1.00586 0.5115,-0.33511 0.87429,-0.58924 1.08594,-0.76562 0.21165,-0.15874 0.31641,-0.36245 0.31641,-0.60938 0,-0.22929 -0.0795,-0.43104 -0.23829,-0.60742 -0.15874,-0.19401 -0.33332,-0.29101 -0.52734,-0.29101 -0.1411,0 -0.26527,0.0174 -0.37109,0.0527 -0.10583,0.0353 -0.23,0.11482 -0.3711,0.23828 -0.35275,0.24693 -0.83775,0.55539 -1.45508,0.92578 -0.59968,0.3704 -1.2166,0.73123 -1.85156,1.08399 -0.12346,0.0705 -0.25538,0.14038 -0.39648,0.21093 -0.12347,0.0529 -0.23793,0.0801 -0.34375,0.0801 -0.22929,0 -0.34375,-0.0698 -0.34375,-0.21093 0,-0.0882 0.0175,-0.16774 0.0527,-0.23829 0.0353,-0.0705 0.14974,-0.20246 0.34375,-0.39648 1.37575,-1.32284 2.44275,-2.45192 3.20117,-3.38672 0.75843,-0.95244 1.13672,-1.70323 1.13672,-2.25 0,-0.54677 -0.27354,-0.82031 -0.82031,-0.82031 z m 100.0332,0 c -0.21165,0 -0.52981,0.0892 -0.95312,0.26562 -0.42331,0.17638 -0.8986,0.4053 -1.42774,0.6875 -0.51149,0.26457 -1.04112,0.56528 -1.58789,0.90039 -0.54677,0.31748 -1.05698,0.6337 -1.5332,0.95118 0.44094,-0.5115 0.7397,-0.88979 0.89844,-1.13672 0.17638,-0.24693 0.26562,-0.47585 0.26562,-0.6875 0,-0.19402 -0.0795,-0.34535 -0.23828,-0.45117 -0.1411,-0.12347 -0.30018,-0.18555 -0.47656,-0.18555 -0.22929,0 -0.47762,0.11641 -0.74219,0.3457 -0.26457,0.22929 -0.51869,0.44075 -0.76562,0.63477 -0.29985,0.24693 -0.65293,0.52047 -1.0586,0.82031 -0.40567,0.29984 -0.82858,0.6083 -1.26953,0.92578 -0.42331,0.31748 -0.85593,0.62594 -1.29687,0.92578 -0.44095,0.29984 -0.85611,0.57339 -1.24414,0.82031 -0.0146,0.009 -0.0232,0.0181 -0.0371,0.0274 -0.0494,0.0249 -0.0991,0.0436 -0.14844,0.0781 -0.26457,0.21166 -0.6157,0.46774 -1.05664,0.76758 -0.44095,0.28221 -0.89103,0.54604 -1.34961,0.79297 -0.44095,0.24693 -0.85611,0.45839 -1.24414,0.63477 -0.3704,0.17637 -0.61677,0.26562 -0.74024,0.26562 -0.19401,0 -0.29101,-0.0795 -0.29101,-0.23828 0,-0.21165 0.17654,-0.52982 0.52929,-0.95313 0.56441,-0.68787 1.23371,-1.40179 2.00977,-2.14257 0.7937,-0.75843 1.56195,-1.52668 2.30273,-2.30274 0.31749,-0.33512 0.47657,-0.65133 0.47657,-0.95117 0,-0.19402 -0.0795,-0.3531 -0.23828,-0.47656 -0.14111,-0.12347 -0.30989,-0.18555 -0.50391,-0.18555 -0.2822,0 -0.53829,0.10671 -0.76758,0.31836 -1.74614,1.60504 -3.32335,2.95333 -4.73437,4.04687 -1.41103,1.09355 -2.68948,1.94134 -3.83594,2.54102 -0.67024,0.33512 -1.14748,0.50195 -1.42969,0.50195 -0.15874,0 -0.23828,-0.0698 -0.23828,-0.21093 0,-0.19402 0.15908,-0.52964 0.47656,-1.00586 0.17638,-0.26457 0.42276,-0.55557 0.74024,-0.87305 0.31748,-0.33512 0.68802,-0.6882 1.11133,-1.05859 0.4233,-0.38804 0.88309,-0.8032 1.37695,-1.24414 0.49386,-0.44095 1.00407,-0.90849 1.5332,-1.40235 0.35276,-0.35275 0.5293,-0.69613 0.5293,-1.03125 0,-0.19401 -0.0524,-0.34339 -0.1582,-0.44922 -0.10583,-0.12346 -0.26491,-0.18554 -0.47657,-0.18554 -0.15874,0 -0.35274,0.0524 -0.58203,0.1582 -0.22929,0.10583 -0.49312,0.28237 -0.79297,0.5293 -0.51149,0.44094 -1.04112,0.87356 -1.58789,1.29687 -0.52913,0.40567 -1.04905,0.78396 -1.56054,1.13672 -0.49386,0.35276 -0.9614,0.68063 -1.40235,0.98047 -0.42331,0.2822 -0.78609,0.51112 -1.08594,0.6875 -0.31748,0.19401 -0.4746,0.4501 -0.47461,0.76758 0,0.33511 0.10476,0.55433 0.31641,0.66015 0.22929,0.0882 0.44075,0.13282 0.63477,0.13282 -0.33512,0.49385 -0.50196,0.95169 -0.50196,1.375 0,0.44094 0.15909,0.80373 0.47657,1.08593 0.33511,0.28221 0.77549,0.42383 1.32226,0.42383 0.42331,0 0.88114,-0.0892 1.375,-0.26562 0.49386,-0.17638 0.9614,-0.38009 1.40235,-0.60938 0.45858,-0.22929 0.86404,-0.45821 1.21679,-0.6875 0.35276,-0.22929 0.60884,-0.39613 0.76758,-0.50195 -0.0529,0.24693 -0.0781,0.45839 -0.0781,0.63476 0,0.45859 0.13191,0.81167 0.39648,1.0586 0.26457,0.24693 0.6254,0.37109 1.08398,0.37109 0.52914,0 1.1286,-0.15133 1.79883,-0.45117 0.67024,-0.28221 1.31432,-0.60812 1.93164,-0.97852 0.61733,-0.37039 1.14695,-0.72347 1.58789,-1.05859 0.33035,-0.2414 0.46209,-0.34376 0.60938,-0.45703 0.0534,-0.0204 0.10715,-0.0404 0.1582,-0.0723 l 0.26367,-0.1582 c 0.0882,-0.0705 0.18519,-0.14039 0.29102,-0.21094 -0.63496,0.58205 -1.07534,1.03018 -1.32227,1.34766 -0.24693,0.31748 -0.37109,0.63564 -0.37109,0.95312 0,0.21166 0.0621,0.37074 0.18555,0.47657 0.1411,0.10582 0.27302,0.1582 0.39648,0.1582 0.24693,0 0.46809,-0.0795 0.66211,-0.23828 0.21165,-0.17638 0.41341,-0.34321 0.60742,-0.50196 1.11118,-0.98771 2.27518,-1.92279 3.49219,-2.80468 1.23465,-0.89953 2.51506,-1.72015 3.83789,-2.46094 -0.49386,0.6526 -1.04094,1.25206 -1.64062,1.79883 -0.59969,0.52913 -1.09439,1.07621 -1.48243,1.64062 -0.19401,0.29985 -0.32593,0.55593 -0.39648,0.76758 -0.0705,0.21165 -0.10547,0.47549 -0.10547,0.79297 0,0.40567 0.13192,0.73354 0.39648,0.98047 0.28221,0.26457 0.64304,0.39648 1.08399,0.39648 0.49386,0 1.0584,-0.12416 1.69336,-0.37109 0.6526,-0.24693 1.28893,-0.53793 1.90625,-0.87305 0.61732,-0.33512 1.17216,-0.67074 1.66601,-1.00586 0.5115,-0.33511 0.87234,-0.58924 1.08399,-0.76562 0.21165,-0.15874 0.31836,-0.36245 0.31836,-0.60938 0,-0.22929 -0.0795,-0.43104 -0.23828,-0.60742 -0.15874,-0.19401 -0.33528,-0.29101 -0.5293,-0.29101 -0.1411,0 -0.26331,0.0174 -0.36914,0.0527 -0.10583,0.0353 -0.22999,0.11482 -0.37109,0.23828 -0.35276,0.24693 -0.83776,0.55539 -1.45508,0.92578 -0.59969,0.3704 -1.2166,0.73123 -1.85157,1.08399 -0.12346,0.0705 -0.25733,0.14038 -0.39843,0.21093 -0.12347,0.0529 -0.23793,0.0801 -0.34375,0.0801 -0.22929,0 -0.34375,-0.0698 -0.34375,-0.21093 0,-0.0882 0.0175,-0.16774 0.0527,-0.23829 0.0353,-0.0705 0.14974,-0.20246 0.34375,-0.39648 1.37575,-1.32284 2.44275,-2.45192 3.20117,-3.38672 0.75843,-0.95244 1.13868,-1.70323 1.13868,-2.25 0,-0.54677 -0.27355,-0.82031 -0.82032,-0.82031 z M 317.64062,233.5 c 0.12347,0 0.18555,0.0795 0.18555,0.23828 0,0.29984 -0.15908,0.71305 -0.47656,1.24219 -0.31748,0.51149 -0.78502,1.1032 -1.40234,1.77344 -0.0176,-0.0705 -0.0274,-0.18501 -0.0274,-0.34375 0,-0.31748 0.0621,-0.6434 0.18555,-0.97852 0.1411,-0.35276 0.30018,-0.67092 0.47656,-0.95312 0.19402,-0.28221 0.38802,-0.51113 0.58203,-0.6875 0.19402,-0.19402 0.3531,-0.29102 0.47656,-0.29102 z m -173.1582,0.76758 c 0.17638,0 0.31605,0.0427 0.42188,0.13086 0.12346,0.0882 0.18554,0.20265 0.18554,0.34375 0,0.29984 -0.15908,0.59084 -0.47656,0.87304 -0.29984,0.28221 -0.67038,0.548 -1.11133,0.79493 -0.4233,0.24693 -0.88114,0.45838 -1.375,0.63476 -0.47622,0.15874 -0.89138,0.26349 -1.24414,0.31641 0.45859,-0.70551 0.87375,-1.26035 1.24414,-1.66602 0.38803,-0.4233 0.73141,-0.74147 1.03125,-0.95312 0.31748,-0.21166 0.58327,-0.34357 0.79492,-0.39649 0.21166,-0.0529 0.3882,-0.0781 0.5293,-0.0781 z m 45.47852,0 c 0.17638,0 0.31605,0.0427 0.42187,0.13086 0.12347,0.0882 0.18555,0.20265 0.18555,0.34375 0,0.29984 -0.15908,0.59084 -0.47656,0.87304 -0.29985,0.28221 -0.67039,0.548 -1.11133,0.79493 -0.42331,0.24693 -0.88114,0.45838 -1.375,0.63476 -0.47622,0.15874 -0.89139,0.26349 -1.24414,0.31641 0.45858,-0.70551 0.87375,-1.26035 1.24414,-1.66602 0.38803,-0.4233 0.73141,-0.74147 1.03125,-0.95312 0.31748,-0.21166 0.58327,-0.34357 0.79492,-0.39649 0.21165,-0.0529 0.3882,-0.0781 0.5293,-0.0781 z m 145.69531,0 c 0.17638,0 0.318,0.0427 0.42383,0.13086 0.12346,0.0882 0.18554,0.20265 0.18554,0.34375 0,0.29984 -0.15908,0.59084 -0.47656,0.87304 -0.29984,0.28221 -0.67038,0.548 -1.11133,0.79493 -0.4233,0.24693 -0.88114,0.45838 -1.375,0.63476 -0.47622,0.15874 -0.89138,0.26349 -1.24414,0.31641 0.45859,-0.70551 0.87375,-1.26035 1.24414,-1.66602 0.38804,-0.4233 0.73141,-0.74147 1.03125,-0.95312 0.31748,-0.21166 0.58132,-0.34357 0.79297,-0.39649 0.21166,-0.0529 0.3882,-0.0781 0.5293,-0.0781 z"
       transform="scale(0.26458333)" />
    <path
       id="path1309"
       style="color:#000000;font-style:normal;font-variant:normal;font-weight:normal;font-stretch:normal;font-size:medium;line-height:normal;font-family:sans-serif;font-variant-ligatures:normal;font-variant-position:normal;font-variant-caps:normal;font-variant-numeric:normal;font-variant-alternates:normal;font-variant-east-asian:normal;font-feature-settings:normal;font-variation-settings:normal;text-indent:0;text-align:start;text-decoration:none;text-decoration-line:none;text-decoration-style:solid;text-decoration-color:#000000;letter-spacing:normal;word-spacing:normal;text-transform:none;writing-mode:lr-tb;direction:ltr;text-orientation:mixed;dominant-baseline:auto;baseline-shift:baseline;text-anchor:start;white-space:normal;shape-padding:0;shape-margin:0;inline-size:0;clip-rule:nonzero;display:inline;overflow:visible;visibility:visible;isolation:auto;mix-blend-mode:normal;color-interpolation:sRGB;color-interpolation-filters:linearRGB;solid-color:#000000;solid-opacity:1;vector-effect:none;fill:#000000;fill-opacity:1;fill-rule:nonzero;stroke:none;stroke-width:0.057611;stroke-linecap:round;stroke-linejoin:round;stroke-miterlimit:4;stroke-dasharray:none;stroke-dashoffset:0;stroke-opacity:1;color-rendering:auto;image-rendering:auto;shape-rendering:auto;text-rendering:auto;enable-background:accumulate;stop-color:#000000"
       d="m 83.020288,70.692924 c -3.172461,0 -5.744246,5.434788 -5.744246,12.139037 0,6.704248 2.571785,12.139035 5.744246,12.139035 3.172462,0 5.744247,-5.434787 5.744247,-12.139035 0,-6.704249 -2.571785,-12.139037 -5.744247,-12.139037 z m -0.0084,0.325135 a 5.270337,11.797481 0 0 1 0.0084,0 5.270337,11.797481 0 0 1 5.270306,11.797545 5.270337,11.797481 0 0 1 -5.270306,11.797553 5.270337,11.797481 0 0 1 -5.270305,-11.797553 5.270337,11.797481 0 0 1 5.261857,-11.797545 z" />
    <path
       id="path1311"
       style="fill:#000000;fill-opacity:1;stroke:none;stroke-width:0.0602121;stroke-linecap:round;stroke-linejoin:round;stroke-miterlimit:4;stroke-dasharray:none;stroke-opacity:1"
       d="m 83.020289,71.345647 a 4.7057549,11.371491 0 0 0 -4.705611,11.371578 4.7057549,11.371491 0 0 0 4.705611,11.37157 4.7057549,11.371491 0 0 0 4.705883,-11.37157 4.7057549,11.371491 0 0 0 -4.705883,-11.371578 z m -0.238469,1.483142 h 0.479664 c 0.145351,0.02906 0.15262,0.08722 0.0218,0.174423 v 4.077146 c 0,0.188958 -0.09448,0.283435 -0.283437,0.283435 h -0.610478 l -0.174423,-0.479661 h 0.479664 c 0.05814,0 0.08721,-0.02906 0.08721,-0.08722 z m -1.242766,0.893921 0.52327,0.130819 c 0.116283,0.04361 0.109012,0.08721 -0.0218,0.130813 -0.174424,0.872113 -0.501468,1.7079 -0.981132,2.507338 l -0.479663,-0.305243 c 0.508734,-0.755834 0.828512,-1.57708 0.959327,-2.463727 z m 2.768969,0 c 0.523265,0.697689 0.922992,1.438993 1.199159,2.223897 l -0.545072,0.23983 c -0.261635,-0.813973 -0.617751,-1.562545 -1.068343,-2.245699 z m -3.357646,6.420956 c 0.145349,0.174418 0.28344,0.414251 0.414253,0.719489 0.145354,-0.188951 0.276174,-0.406984 0.392453,-0.654083 l 0.283439,0.174426 c 0.101743,0.0436 0.09448,0.08721 -0.0218,0.130812 -0.130813,0.247099 -0.297975,0.508731 -0.501465,0.784904 0.145348,0.406992 0.218029,1.220969 0.218029,2.441931 0,0.857567 -0.210764,1.286367 -0.632286,1.286367 h -0.327045 l -0.06541,-0.414259 h 0.305241 c 0.218029,0 0.327045,-0.356111 0.327045,-1.068334 v -0.675891 c -0.247099,0.450591 -0.486932,0.784904 -0.719498,1.002929 l -0.174422,-0.414251 c 0.406986,-0.479665 0.690427,-0.901191 0.850314,-1.264577 -0.02907,-0.24709 -0.05815,-0.43605 -0.08721,-0.56687 -0.145353,0.203501 -0.327045,0.392452 -0.545073,0.56687 l -0.174428,-0.348836 c 0.261634,-0.232567 0.457861,-0.436067 0.588679,-0.610485 -0.145353,-0.421518 -0.290709,-0.712223 -0.436058,-0.872117 z m 1.678822,0 0.348846,0.0436 c 0.116283,0.01453 0.123547,0.05813 0.0218,0.130819 l -0.174422,0.566871 h 0.457859 v 1.5044 h -0.893918 v 0.610485 h 0.915721 v 1.766033 h -0.37065 V 84.52604 h -0.545071 v 0.370652 h -0.370651 v -4.011737 h 0.479664 z m 0.850314,0.305238 h 2.005866 v 0.348845 h -0.806708 v 0.806703 h 0.741298 v 2.529144 c 0,0.218026 -0.07995,0.327038 -0.23983,0.327038 H 84.8967 l -0.06541,-0.348845 h 0.130818 c 0.05814,0 0.08721,-0.02907 0.08721,-0.08721 v -2.071271 h -0.37065 v 3.074207 h -0.370643 v -3.07421 h -0.370651 v 2.529128 h -0.370647 v -2.877981 h 0.741298 v -0.806703 h -0.82851 z m -1.090144,0.784904 v 0.80671 h 0.523269 v -0.80671 z m 0,2.114885 v 0.828502 h 0.54507 v -0.828502 z m 2.027668,4.589233 0.414256,0.414251 -0.130818,0.0654 c -0.523268,0.465132 -0.9884,0.813985 -1.395385,1.046543 v 0.501472 h 2.180289 v 0.479657 H 83.30509 v 1.700627 c 0,0.232566 -0.116283,0.348853 -0.348846,0.348853 h -0.632285 l -0.109014,-0.479673 h 0.501465 c 0.05814,0 0.08721,-0.02907 0.08721,-0.0872 V 90.445247 H 80.557925 V 89.96559 h 2.245697 v -0.981137 l 0.414256,0.0654 c 0.30524,-0.188959 0.574143,-0.399718 0.806706,-0.632292 H 81.146601 V 88.00331 h 3.183223 z" />
    <g
       id="g1317"
       style="opacity:1;fill:none;fill-opacity:1;stroke:#0000ff;stroke-width:0.0478457;stroke-miterlimit:4;stroke-dasharray:none;stroke-opacity:1"
       transform="matrix(0.52251312,0,0,0.52251312,15.628386,-66.690971)">
      <path
         style="color:#000000;font-style:normal;font-variant:normal;font-weight:normal;font-stretch:normal;font-size:medium;line-height:normal;font-family:sans-serif;font-variant-ligatures:normal;font-variant-position:normal;font-variant-caps:normal;font-variant-numeric:normal;font-variant-alternates:normal;font-variant-east-asian:normal;font-feature-settings:normal;font-variation-settings:normal;text-indent:0;text-align:start;text-decoration:none;text-decoration-line:none;text-decoration-style:solid;text-decoration-color:#000000;letter-spacing:normal;word-spacing:normal;text-transform:none;writing-mode:lr-tb;direction:ltr;text-orientation:mixed;dominant-baseline:auto;baseline-shift:baseline;text-anchor:start;white-space:normal;shape-padding:0;shape-margin:0;inline-size:0;clip-rule:nonzero;display:inline;overflow:visible;visibility:visible;isolation:auto;mix-blend-mode:normal;color-interpolation:sRGB;color-interpolation-filters:linearRGB;solid-color:#000000;solid-opacity:1;vector-effect:none;fill:none;fill-opacity:1;fill-rule:nonzero;stroke:#0000ff;stroke-width:0.0478457;stroke-linecap:round;stroke-linejoin:round;stroke-miterlimit:4;stroke-dasharray:none;stroke-dashoffset:0;stroke-opacity:1;color-rendering:auto;image-rendering:auto;shape-rendering:auto;text-rendering:auto;enable-background:accumulate;stop-color:#000000;stop-opacity:1"
         d="m 60.767518,208.71747 c 10e-7,12.71213 -4.876447,23.01735 -10.89185,23.01735 -6.015404,0 -10.891852,-10.30522 -10.891851,-23.01735 -1e-6,-12.71213 4.876447,-23.01735 10.891851,-23.01735 6.015403,0 10.891851,10.30522 10.89185,23.01735 z"
         id="path1313" />
      <path
         style="color:#000000;font-style:normal;font-variant:normal;font-weight:normal;font-stretch:normal;font-size:medium;line-height:normal;font-family:sans-serif;font-variant-ligatures:normal;font-variant-position:normal;font-variant-caps:normal;font-variant-numeric:normal;font-variant-alternates:normal;font-variant-east-asian:normal;font-feature-settings:normal;font-variation-settings:normal;text-indent:0;text-align:start;text-decoration:none;text-decoration-line:none;text-decoration-style:solid;text-decoration-color:#000000;letter-spacing:normal;word-spacing:normal;text-transform:none;writing-mode:lr-tb;direction:ltr;text-orientation:mixed;dominant-baseline:auto;baseline-shift:baseline;text-anchor:start;white-space:normal;shape-padding:0;shape-margin:0;inline-size:0;clip-rule:nonzero;display:inline;overflow:visible;visibility:visible;isolation:auto;mix-blend-mode:normal;color-interpolation:sRGB;color-interpolation-filters:linearRGB;solid-color:#000000;solid-opacity:1;vector-effect:none;fill:none;fill-opacity:1;fill-rule:nonzero;stroke:#0000ff;stroke-width:0.0478457;stroke-linecap:round;stroke-linejoin:round;stroke-miterlimit:4;stroke-dasharray:none;stroke-dashoffset:0;stroke-opacity:1;color-rendering:auto;image-rendering:auto;shape-rendering:auto;text-rendering:auto;enable-background:accumulate;stop-color:#000000;stop-opacity:1"
         d="m 49.875,185.64453 c -3.038892,0 -5.774368,2.59841 -7.75,6.77344 -1.975632,4.17503 -3.195313,9.93578 -3.195312,16.29883 -10e-7,6.36305 1.21968,12.12379 3.195312,16.29882 1.975632,4.17504 4.711108,6.77344 7.75,6.77344 3.038892,0 5.776322,-2.5984 7.751953,-6.77344 1.975632,-4.17503 3.195313,-9.93577 3.195313,-16.29882 0,-6.36305 -1.219681,-12.1238 -3.195313,-16.29883 -1.975631,-4.17503 -4.713061,-6.77344 -7.751953,-6.77344 z m 0,0.10938 c 2.976512,0 5.685901,2.55532 7.652344,6.71093 1.966443,4.15562 3.185547,9.90288 3.185547,16.25196 0,6.34908 -1.219104,12.09829 -3.185547,16.2539 -1.966443,4.15562 -4.675832,6.70899 -7.652344,6.70899 -2.976512,0 -5.685901,-2.55337 -7.652344,-6.70899 -1.966443,-4.15561 -3.183594,-9.90482 -3.183594,-16.2539 0,-6.34908 1.217151,-12.09634 3.183594,-16.25196 1.966443,-4.15561 4.675832,-6.71093 7.652344,-6.71093 z"
         id="path1315" />
    </g>
    <path
       id="path1319"
       style="fill:#000000;fill-opacity:1;stroke:none;stroke-width:0.0643042;stroke-linecap:round;stroke-linejoin:round;stroke-miterlimit:4;stroke-dasharray:none;stroke-opacity:1"
       d="m 41.680623,30.661998 a 5.2216031,11.688392 0 0 0 -5.213201,11.688459 5.2216031,11.688392 0 0 0 5.221572,11.688458 5.2216031,11.688392 0 0 0 5.221572,-11.688458 5.2216031,11.688392 0 0 0 -5.221572,-11.688459 5.2216031,11.688392 0 0 0 -0.0084,0 z m 0.0084,0.32456 a 4.6622417,11.266341 0 0 1 4.662333,11.266423 4.6622417,11.266341 0 0 1 -4.662369,11.266423 4.6622417,11.266341 0 0 1 -4.662099,-11.266423 4.6622417,11.266341 0 0 1 4.662099,-11.266423 z" />
    <path
       d="m 39.271084,35.78248 q 0.756043,-1.123262 0.950454,-2.440935 l 0.518429,0.129604 q 0.17281,0.06481 -0.0216,0.129609 -0.259215,1.296073 -0.972055,2.484143 z m 3.693809,-2.440935 q 0.777644,1.036859 1.188067,2.203322 l -0.54003,0.237613 q -0.388822,-1.20967 -1.058461,-2.224923 z m -1.598491,3.132174 q 0.08641,0 0.08641,-0.08641 v -3.931415 h 0.475228 q 0.216012,0.04321 0.0216,0.172805 v 4.039428 q 0,0.28082 -0.280816,0.28082 H 41.06399 l -0.172809,-0.47523 z"
       style="font-style:normal;font-weight:normal;font-size:10.5833px;line-height:125%;font-family:sans-serif;letter-spacing:0px;word-spacing:0px;fill:#000000;fill-opacity:1;stroke:none;stroke-width:0.138248px;stroke-linecap:butt;stroke-linejoin:miter;stroke-opacity:1"
       id="path1321" />
    <path
       d="m 39.983925,41.733618 q -0.0432,-0.367223 -0.08641,-0.561634 -0.216013,0.30242 -0.540031,0.561634 l -0.172807,-0.345622 q 0.388821,-0.345616 0.583233,-0.60483 -0.216013,-0.626436 -0.432025,-0.864049 l 0.302417,-0.216012 q 0.216012,0.259214 0.410423,0.712839 0.216013,-0.280814 0.388823,-0.648036 l 0.280816,0.17281 q 0.151208,0.0648 -0.0216,0.129604 -0.194411,0.367222 -0.496828,0.777646 0.216012,0.604835 0.216012,2.419336 0,1.274471 -0.626436,1.274471 h -0.324018 l -0.0648,-0.410423 h 0.302417 q 0.324019,0 0.324019,-1.05846 v -0.669637 q -0.367221,0.669637 -0.712841,0.993658 L 39.14148,42.986489 q 0.604834,-0.712838 0.842447,-1.252871 z m 4.147434,-1.728097 v 0.345621 h -0.799245 v 0.799241 h 0.734441 v 2.505743 q 0,0.324021 -0.237613,0.324021 h -0.280816 l -0.0648,-0.345621 h 0.129608 q 0.08641,0 0.08641,-0.0864 v -2.052119 h -0.36722 v 3.045771 h -0.367226 v -3.045774 h -0.367221 v 2.505743 h -0.367221 v -2.851365 h 0.734442 v -0.79924 h -0.820851 v -0.345621 z m -2.635349,0.432023 h 0.453625 v 1.490485 h -0.88565 v 0.604835 h 0.907251 v 1.749698 h -0.36722 v -0.237613 h -0.540031 v 0.367222 h -0.367221 v -3.974627 h 0.475228 l 0.129606,-0.734439 0.34562,0.04321 q 0.17281,0.02158 0.0216,0.129604 z m -0.432025,3.261783 h 0.540031 v -0.820846 h -0.540031 z m 0.51843,-2.11692 v -0.799241 h -0.51843 v 0.799241 z"
       style="font-style:normal;font-weight:normal;font-size:10.5833px;line-height:125%;font-family:sans-serif;letter-spacing:0px;word-spacing:0px;fill:#000000;fill-opacity:1;stroke:none;stroke-width:0.138248px;stroke-linecap:butt;stroke-linejoin:miter;stroke-opacity:1"
       id="path1323" />
    <path
       d="m 39.832715,47.900767 v -0.410424 h 3.153779 l 0.08641,-0.0648 0.410423,0.410424 -0.129607,0.0648 q -0.777645,0.691239 -1.382479,1.03686 v 0.496827 h 2.160122 v 0.475225 h -2.160125 v 1.684896 q 0,0.345622 -0.345619,0.345622 h -0.626436 l -0.108005,-0.475226 h 0.496828 q 0.08641,0 0.08641,-0.08641 v -1.468882 h -2.224931 v -0.475225 h 2.224926 v -0.972053 l 0.410424,0.0648 q 0.453625,-0.280815 0.799244,-0.626436 z"
       style="font-style:normal;font-weight:normal;font-size:10.5833px;line-height:125%;font-family:sans-serif;letter-spacing:0px;word-spacing:0px;fill:#000000;fill-opacity:1;stroke:none;stroke-width:0.138248px;stroke-linecap:butt;stroke-linejoin:miter;stroke-opacity:1"
       id="path1325" />
    <g
       inkscape:label="QR Code: https://github.com/XiaoShiZi/fabzero-XiaoShiZi/blob/master/Opdrachten/Eindwerk-XiaoShiZi.md"
       transform="matrix(0.18802839,0,0,0.18802839,39.500699,71.857909)"
       id="g2922"
       style="display:inline;stroke-width:1.00051;stroke-miterlimit:4;stroke-dasharray:none">
      <rect
         x="0"
         y="0"
         width="135"
         height="135"
         style="display:none;fill:#ffffff;stroke:none;stroke-width:1.00051;stroke-miterlimit:4;stroke-dasharray:none"
         id="rect2916" />
      <g
         style="fill:#000000;stroke:none;stroke-width:1.00051;stroke-miterlimit:4;stroke-dasharray:none"
         id="g2920">
        <path
           d="m 122.85,123 h -2.7 c -0.0828,0 -0.15,-0.0672 -0.15,-0.15 v -2.7 c 0,-0.0828 0.0672,-0.15 0.15,-0.15 h 2.7 c 0.0828,0 0.15,0.0672 0.15,0.15 v 2.7 c 0,0.0828 -0.0672,0.15 -0.15,0.15 z m -12,0 h -2.7 c -0.0828,0 -0.15,-0.0672 -0.15,-0.15 V 120 h 3 v 2.85 c 0,0.0828 -0.0672,0.15 -0.15,0.15 z m -12,0 h -2.7 C 96.067157,123 96,122.93284 96,122.85 V 117 h 2.85 c 0.08284,0 0.15,0.0672 0.15,0.15 v 5.7 c 0,0.0828 -0.06716,0.15 -0.15,0.15 z m -9,0 h -2.7 C 87.06716,123 87,122.9328 87,122.85 v -2.7 C 87,120.0672 87.06716,120 87.15,120 H 90 v 2.85 c 0,0.0828 -0.06716,0.15 -0.15,0.15 z m -6,0 h -2.7 C 81.06716,123 81,122.9328 81,122.85 v -2.7 C 81,120.06716 80.932843,120 80.85,120 H 78 v -2.85 c 0,-0.0828 0.06716,-0.15 0.15,-0.15 h 2.7 c 0.08284,0 0.15,-0.0672 0.15,-0.15 V 111 h 2.85 c 0.08284,0 0.15,-0.0672 0.15,-0.15 v -2.7 c 0,-0.0828 0.06716,-0.15 0.15,-0.15 h 2.7 c 0.08284,0 0.15,0.0672 0.15,0.15 v 2.7 c 0,0.0828 0.06716,0.15 0.15,0.15 h 2.7 c 0.08284,0 0.15,0.0672 0.15,0.15 v 2.7 c 0,0.0828 -0.06716,0.15 -0.15,0.15 h -5.7 c -0.08284,0 -0.15,0.0672 -0.15,0.15 v 8.7 c 0,0.0828 -0.06716,0.15 -0.15,0.15 z m -6,0 h -5.7 C 72.06716,123 72,122.9328 72,122.85 v -2.7 C 72,120.0672 71.93284,120 71.85,120 h -2.7 C 69.06716,120 69,119.9328 69,119.85 v -2.7 C 69,117.0672 68.93284,117 68.85,117 h -2.7 C 66.06716,117 66,116.9328 66,116.85 v -5.7 c 0,-0.0828 0.06716,-0.15 0.15,-0.15 h 2.7 c 0.08284,0 0.15,-0.0672 0.15,-0.15 V 108 h 2.85 c 0.08284,0 0.15,0.0672 0.15,0.15 v 2.7 c 0,0.0828 0.06716,0.15 0.15,0.15 H 78 v 2.85 c 0,0.0828 -0.06716,0.15 -0.15,0.15 h -5.7 c -0.08284,0 -0.15,0.0672 -0.15,0.15 v 2.7 c 0,0.0828 0.06716,0.15 0.15,0.15 h 2.7 c 0.08284,0 0.15,0.0672 0.15,0.15 v 2.7 c 0,0.0828 0.06716,0.15 0.15,0.15 H 78 v 2.85 c 0,0.0828 -0.06716,0.15 -0.15,0.15 z m -15,0 h -2.7 C 60.067157,123 60,122.93284 60,122.85 V 120 h 2.85 c 0.08284,0 0.15,0.0672 0.15,0.15 v 2.7 c 0,0.0828 -0.06716,0.15 -0.15,0.15 z m -6,0 h -5.7 C 51.067157,123 51,122.93284 51,122.85 V 120 h 2.85 c 0.08284,0 0.15,-0.0672 0.15,-0.15 v -2.7 C 54,117.0672 53.93284,117 53.85,117 h -2.7 C 51.06716,117 51,117.0672 51,117.15 V 120 H 45.15 C 45.06716,120 45,119.9328 45,119.85 v -2.7 c 0,-0.0828 0.06716,-0.15 0.15,-0.15 h 2.7 c 0.08284,0 0.15,-0.0672 0.15,-0.15 v -5.7 C 48,111.0672 47.93284,111 47.85,111 h -5.7 c -0.08284,0 -0.15,0.0672 -0.15,0.15 v 8.7 c 0,0.0828 -0.06716,0.15 -0.15,0.15 h -2.7 c -0.08284,0 -0.15,0.0672 -0.15,0.15 v 2.7 c 0,0.0828 -0.06716,0.15 -0.15,0.15 h -2.7 C 36.06716,123 36,122.9328 36,122.85 v -8.7 c 0,-0.0828 0.06716,-0.15 0.15,-0.15 h 2.7 c 0.08284,0 0.15,-0.0672 0.15,-0.15 v -5.7 C 39,108.0672 38.93284,108 38.85,108 h -2.7 C 36.06716,108 36,107.9328 36,107.85 v -2.7 C 36,105.0672 36.06716,105 36.15,105 H 42 v 2.85 c 0,0.0828 0.06716,0.15 0.15,0.15 h 8.7 c 0.08284,0 0.15,-0.0672 0.15,-0.15 v -2.7 c 0,-0.0828 0.06716,-0.15 0.15,-0.15 h 2.7 c 0.08284,0 0.15,0.0672 0.15,0.15 v 5.7 c 0,0.0828 -0.06716,0.15 -0.15,0.15 h -2.7 c -0.08284,0 -0.15,0.0672 -0.15,0.15 v 2.7 c 0,0.0828 0.06716,0.15 0.15,0.15 h 5.7 c 0.08284,0 0.15,-0.0672 0.15,-0.15 v -2.7 C 57,111.0672 57.06716,111 57.15,111 H 60 v 9 h -2.85 c -0.08284,0 -0.15,0.0672 -0.15,0.15 v 2.7 c 0,0.0828 -0.06716,0.15 -0.15,0.15 z m -24,0 H 12.15 C 12.06716,123 12,122.9328 12,122.85 v -20.7 c 0,-0.0828 0.06716,-0.15 0.15,-0.15 h 20.7 c 0.08284,0 0.15,0.0672 0.15,0.15 v 20.7 c 0,0.0828 -0.06716,0.15 -0.15,0.15 z m 81,-3 H 111 v -2.85 c 0,-0.0828 -0.0672,-0.15 -0.15,-0.15 H 108 v -5.85 c 0,-0.0828 -0.0672,-0.15 -0.15,-0.15 h -5.7 c -0.0828,0 -0.15,0.0672 -0.15,0.15 V 114 H 99.15 C 99.06716,114 99,113.9328 99,113.85 v -2.7 C 99,111.0672 98.93284,111 98.85,111 h -5.7 C 93.06716,111 93,110.9328 93,110.85 v -2.7 C 93,108.0672 92.93284,108 92.85,108 h -2.7 C 90.06716,108 90,107.9328 90,107.85 v -2.7 C 90,105.0672 89.93284,105 89.85,105 H 78.15 C 78.06716,105 78,104.9328 78,104.85 v -5.7 C 78,99.067157 78.067157,99 78.15,99 h 5.7 C 83.93284,99 84,98.93284 84,98.85 v -2.7 C 84,96.067157 84.067157,96 84.15,96 h 2.7 c 0.08284,0 0.15,0.06716 0.15,0.15 v 5.7 c 0,0.0828 0.06716,0.15 0.15,0.15 h 5.7 c 0.08284,0 0.15,0.0672 0.15,0.15 v 2.7 c 0,0.0828 0.06716,0.15 0.15,0.15 h 2.7 c 0.08284,0 0.15,-0.0672 0.15,-0.15 v -8.7 C 96,96.067157 96.067157,96 96.15,96 h 2.7 C 98.93284,96 99,95.93284 99,95.85 v -2.7 C 99,93.067157 99.067157,93 99.15,93 H 105 v 2.85 c 0,0.08284 0.0672,0.15 0.15,0.15 H 111 v 2.85 c 0,0.08284 0.0672,0.15 0.15,0.15 h 2.7 c 0.0828,0 0.15,0.06716 0.15,0.15 v 2.7 c 0,0.0828 0.0672,0.15 0.15,0.15 h 2.7 c 0.0828,0 0.15,0.0672 0.15,0.15 V 105 h -2.85 c -0.0828,0 -0.15,0.0672 -0.15,0.15 V 111 h -2.85 c -0.0828,0 -0.15,0.0672 -0.15,0.15 v 2.7 c 0,0.0828 0.0672,0.15 0.15,0.15 h 2.7 c 0.0828,0 0.15,-0.0672 0.15,-0.15 V 111 h 2.85 c 0.0828,0 0.15,-0.0672 0.15,-0.15 V 105 h 2.85 c 0.0828,0 0.15,-0.0672 0.15,-0.15 V 99 h 2.85 c 0.0828,0 0.15,0.06716 0.15,0.15 v 8.7 c 0,0.0828 -0.0672,0.15 -0.15,0.15 h -2.7 c -0.0828,0 -0.15,0.0672 -0.15,0.15 V 114 h -2.85 c -0.0828,0 -0.15,0.0672 -0.15,0.15 v 2.7 c 0,0.0828 -0.0672,0.15 -0.15,0.15 h -2.7 c -0.0828,0 -0.15,0.0672 -0.15,0.15 v 2.7 c 0,0.0828 -0.0672,0.15 -0.15,0.15 z m -6,0 h -2.7 c -0.0828,0 -0.15,-0.0672 -0.15,-0.15 V 117 h 3 v 3 z m -15,0 H 90 v -2.85 C 90,117.0672 90.06716,117 90.15,117 H 93 v 2.85 c 0,0.0828 -0.06716,0.15 -0.15,0.15 z M 30,119.85 v -14.7 C 30,105.0672 29.93284,105 29.85,105 h -14.7 c -0.08284,0 -0.15,0.0672 -0.15,0.15 v 14.7 c 0,0.0828 0.06716,0.15 0.15,0.15 h 14.7 c 0.08284,0 0.15,-0.0672 0.15,-0.15 z M 122.85,117 h -2.7 c -0.0828,0 -0.15,-0.0672 -0.15,-0.15 V 114 h 2.85 c 0.0828,0 0.15,0.0672 0.15,0.15 v 2.7 c 0,0.0828 -0.0672,0.15 -0.15,0.15 z m -18,0 h -2.7 c -0.0828,0 -0.15,-0.0672 -0.15,-0.15 V 114 h 2.85 c 0.0828,0 0.15,0.0672 0.15,0.15 V 117 Z m -9,0 H 93 v -2.85 c 0,-0.0828 0.06716,-0.15 0.15,-0.15 h 2.7 c 0.08284,0 0.15,0.0672 0.15,0.15 V 117 Z m -69,0 h -8.7 C 18.06716,117 18,116.9328 18,116.85 v -8.7 c 0,-0.0828 0.06716,-0.15 0.15,-0.15 h 8.7 c 0.08284,0 0.15,0.0672 0.15,0.15 v 8.7 c 0,0.0828 -0.06716,0.15 -0.15,0.15 z m 54,-6 H 78 v -2.85 c 0,-0.0828 0.06716,-0.15 0.15,-0.15 h 2.7 c 0.08284,0 0.15,0.0672 0.15,0.15 V 111 Z m -18,0 H 60 v -6 h 3 v 5.85 c 0,0.0828 -0.06716,0.15 -0.15,0.15 z M 108,107.85 v -8.7 C 108,99.06716 107.9328,99 107.85,99 h -8.7 C 99.067157,99 99,99.067157 99,99.15 v 8.7 c 0,0.0828 0.06716,0.15 0.15,0.15 h 8.7 c 0.0828,0 0.15,-0.0672 0.15,-0.15 z M 68.85,108 h -2.7 C 66.067157,108 66,107.93284 66,107.85 V 105 h 3 v 3 z m 36,-3 h -2.7 c -0.0828,0 -0.15,-0.0672 -0.15,-0.15 v -2.7 c 0,-0.0828 0.0672,-0.15 0.15,-0.15 h 2.7 c 0.0828,0 0.15,0.0672 0.15,0.15 v 2.7 c 0,0.0828 -0.0672,0.15 -0.15,0.15 z m -30,0 H 69 v -9 h 2.85 C 71.93284,96 72,95.93284 72,95.85 v -2.7 C 72,93.067157 71.932843,93 71.85,93 H 69 V 90.15 C 69,90.067157 68.932843,90 68.85,90 h -2.7 C 66.067157,90 66,89.932843 66,89.85 v -2.7 C 66,87.067157 66.067157,87 66.15,87 h 2.7 C 68.932843,87 69,86.932843 69,86.85 V 72.15 C 69,72.067157 69.067157,72 69.15,72 h 5.7 c 0.08284,0 0.15,0.06716 0.15,0.15 v 5.7 C 75,77.93284 75.06716,78 75.15,78 H 78 v 2.85 C 78,80.93284 77.93284,81 77.85,81 h -5.7 C 72.067157,81 72,81.067157 72,81.15 v 5.7 c 0,0.08284 0.06716,0.15 0.15,0.15 h 2.7 c 0.08284,0 0.15,0.06716 0.15,0.15 v 2.7 c 0,0.08284 0.06716,0.15 0.15,0.15 h 2.7 C 77.93284,90 78,90.06716 78,90.15 V 93 H 75.15 C 75.067157,93 75,93.067157 75,93.15 v 11.7 c 0,0.0828 -0.06716,0.15 -0.15,0.15 z m -9,0 H 63 v -3 h 2.85 c 0.08284,0 0.15,0.0672 0.15,0.15 V 105 Z m -6,0 h -2.7 C 57.067157,105 57,104.93284 57,104.85 V 102 h 3 v 3 z m -12,0 H 42 v -2.85 c 0,-0.0828 0.06716,-0.15 0.15,-0.15 h 5.7 c 0.08284,0 0.15,0.0672 0.15,0.15 v 2.7 c 0,0.0828 -0.06716,0.15 -0.15,0.15 z m 15,-3 H 60 V 99.15 C 60,99.067157 60.067157,99 60.15,99 h 2.7 C 62.93284,99 63,99.06716 63,99.15 V 102 Z m -6,0 h -5.7 C 51.067157,102 51,101.93284 51,101.85 V 96 h 2.85 C 53.93284,96 54,95.93284 54,95.85 v -2.7 C 54,93.067157 53.932843,93 53.85,93 h -2.7 C 51.067157,93 51,93.067157 51,93.15 V 96 h -6 v -3 h 2.85 C 47.93284,93 48,92.93284 48,92.85 v -5.7 C 48,87.067157 47.932843,87 47.85,87 h -2.7 C 45.067157,87 45,87.067157 45,87.15 V 93 H 42 V 87.15 C 42,87.067157 41.932843,87 41.85,87 H 39 V 81.15 C 39,81.067157 39.067157,81 39.15,81 H 45 v 2.85 c 0,0.08284 0.06716,0.15 0.15,0.15 h 5.7 C 50.93284,84 51,83.93284 51,83.85 v -2.7 C 51,81.067157 51.067157,81 51.15,81 h 2.7 c 0.08284,0 0.15,0.06716 0.15,0.15 v 5.7 C 54,86.93284 53.93284,87 53.85,87 h -2.7 C 51.067157,87 51,87.067157 51,87.15 v 2.7 c 0,0.08284 0.06716,0.15 0.15,0.15 h 5.7 C 56.93284,90 57,89.93284 57,89.85 v -2.7 C 57,87.067157 57.067157,87 57.15,87 h 2.7 C 59.93284,87 60,86.93284 60,86.85 v -2.7 C 60,84.067157 60.067157,84 60.15,84 h 2.7 c 0.08284,0 0.15,0.06716 0.15,0.15 v 8.7 C 63,92.93284 62.93284,93 62.85,93 h -5.7 C 57.067157,93 57,93.067157 57,93.15 V 102 Z m -18,0 h -2.7 C 36.06716,102 36,101.9328 36,101.85 v -5.7 C 36,96.067157 35.932843,96 35.85,96 H 33 V 93.15 C 33,93.067157 32.932843,93 32.85,93 h -2.7 C 30.067157,93 30,92.932843 30,92.85 V 90 h 5.85 C 35.93284,90 36,89.93284 36,89.85 v -2.7 C 36,87.067157 36.067157,87 36.15,87 H 39 v 5.85 C 39,92.93284 39.06716,93 39.15,93 H 42 v 2.85 C 42,95.93284 42.06716,96 42.15,96 H 45 v 2.85 C 45,98.93284 44.93284,99 44.85,99 h -5.7 C 39.067157,99 39,99.067157 39,99.15 v 2.7 c 0,0.0828 -0.06716,0.15 -0.15,0.15 z m 81,-3 h -2.7 C 117.0672,99 117,98.93284 117,98.85 v -2.7 c 0,-0.08284 0.0672,-0.15 0.15,-0.15 h 2.7 c 0.0828,0 0.15,0.06716 0.15,0.15 V 99 Z m -87,0 h -2.7 C 30.067157,99 30,98.932843 30,98.85 v -2.7 C 30,96.067157 30.067157,96 30.15,96 H 33 v 2.85 C 33,98.93284 32.93284,99 32.85,99 Z m -6,0 H 12.15 C 12.067157,99 12,98.932843 12,98.85 v -2.7 C 12,96.067157 12.067157,96 12.15,96 h 11.7 C 23.932843,96 24,95.932843 24,95.85 V 93 h 2.85 c 0.08284,0 0.15,0.06716 0.15,0.15 v 5.7 C 27,98.93284 26.93284,99 26.85,99 Z m 87,-3 H 111 V 93.15 C 111,93.06716 111.0672,93 111.15,93 H 114 v 2.85 c 0,0.08284 -0.0672,0.15 -0.15,0.15 z m -21,0 h -2.7 C 90.067157,96 90,95.932843 90,95.85 v -2.7 C 90,93.067157 89.932843,93 89.85,93 h -2.7 C 87.067157,93 87,92.932843 87,92.85 v -2.7 C 87,90.067157 86.932843,90 86.85,90 H 84 V 87.15 C 84,87.067157 84.067157,87 84.15,87 h 5.7 c 0.08284,0 0.15,0.06716 0.15,0.15 v 2.7 C 90,89.93284 90.06716,90 90.15,90 H 96 v 2.85 C 96,92.93284 95.93284,93 95.85,93 h -2.7 C 93.067157,93 93,93.067157 93,93.15 v 2.7 C 93,95.93284 92.93284,96 92.85,96 Z m -12,0 h -2.7 C 78.067157,96 78,95.932843 78,95.85 V 93 h 3 v 2.85 C 81,95.93284 80.93284,96 80.85,96 Z m -12,0 h -2.7 C 66.067157,96 66,95.932843 66,95.85 v -2.7 C 66,93.067157 66.067157,93 66.15,93 H 69 v 3 z m 54,-3 h -2.7 C 120.0672,93 120,92.93284 120,92.85 v -2.7 C 120,90.06716 119.9328,90 119.85,90 h -2.7 c -0.0828,0 -0.15,0.06716 -0.15,0.15 v 2.7 c 0,0.08284 -0.0672,0.15 -0.15,0.15 H 114 v -6 h 5.85 c 0.0828,0 0.15,-0.06716 0.15,-0.15 v -2.7 c 0,-0.08284 0.0672,-0.15 0.15,-0.15 h 2.7 c 0.0828,0 0.15,0.06716 0.15,0.15 v 8.7 c 0,0.08284 -0.0672,0.15 -0.15,0.15 z m -15,0 H 105 v -3 h 2.85 c 0.0828,0 0.15,0.06716 0.15,0.15 v 2.7 c 0,0.08284 -0.0672,0.15 -0.15,0.15 z m -24,0 H 81 V 90.15 C 81,90.067157 81.067157,90 81.15,90 H 84 v 2.85 C 84,92.93284 83.93284,93 83.85,93 Z m -60,0 H 12.15 C 12.067157,93 12,92.932843 12,92.85 v -2.7 C 12,90.067157 12.067157,90 12.15,90 h 2.7 C 14.93284,90 15,89.93284 15,89.85 v -2.7 C 15,87.067157 14.932843,87 14.85,87 h -2.7 C 12.067157,87 12,86.932843 12,86.85 v -5.7 C 12,81.067157 12.067157,81 12.15,81 h 2.7 C 14.93284,81 15,80.93284 15,80.85 v -2.7 C 15,78.067157 14.932843,78 14.85,78 h -2.7 C 12.067157,78 12,77.932843 12,77.85 v -2.7 C 12,75.067157 12.067157,75 12.15,75 h 5.7 c 0.08284,0 0.15,0.06716 0.15,0.15 v 2.7 C 18,77.93284 18.06716,78 18.15,78 H 21 v 3 H 18.15 C 18.067157,81 18,81.067157 18,81.15 v 2.7 C 18,83.93284 18.06716,84 18.15,84 H 21 v 3 H 18.15 C 18.067157,87 18,87.067157 18,87.15 v 2.7 c 0,0.08284 0.06716,0.15 0.15,0.15 h 2.7 C 20.932843,90 21,89.932843 21,89.85 V 87 h 3 v 6 z m 81,-3 h -2.7 C 102.06716,90 102,89.932843 102,89.85 V 84 h 2.85 c 0.0828,0 0.15,-0.06716 0.15,-0.15 v -2.7 C 105,81.06716 104.9328,81 104.85,81 h -2.7 C 102.0672,81 102,81.06716 102,81.15 V 84 H 99.15 C 99.067157,84 99,83.932843 99,83.85 v -2.7 C 99,81.067157 98.932843,81 98.85,81 h -2.7 C 96.067157,81 96,81.067157 96,81.15 v 2.7 C 96,83.93284 95.93284,84 95.85,84 h -2.7 C 93.067157,84 93,83.932843 93,83.85 v -2.7 C 93,81.067157 92.932843,81 92.85,81 h -8.7 C 84.067157,81 84,81.067157 84,81.15 v 2.7 C 84,83.93284 83.93284,84 83.85,84 h -2.7 C 81.067157,84 81,83.932843 81,83.85 v -5.7 C 81,78.067157 80.932843,78 80.85,78 H 78 V 75.15 C 78,75.067157 78.067157,75 78.15,75 h 5.7 C 83.93284,75 84,74.93284 84,74.85 v -2.7 C 84,72.067157 84.067157,72 84.15,72 H 90 v 2.85 c 0,0.08284 0.06716,0.15 0.15,0.15 h 5.7 C 95.93284,75 96,74.93284 96,74.85 v -2.7 C 96,72.067157 96.067157,72 96.15,72 H 99 v 5.85 c 0,0.08284 0.06716,0.15 0.15,0.15 h 2.7 c 0.0828,0 0.15,-0.06716 0.15,-0.15 V 72 h 5.85 c 0.0828,0 0.15,0.06716 0.15,0.15 v 8.7 c 0,0.08284 0.0672,0.15 0.15,0.15 h 5.7 c 0.0828,0 0.15,0.06716 0.15,0.15 V 87 h -2.85 C 111.0672,87 111,86.93284 111,86.85 v -2.7 C 111,84.06716 110.9328,84 110.85,84 h -2.7 c -0.0828,0 -0.15,0.06716 -0.15,0.15 v 2.7 c 0,0.08284 -0.0672,0.15 -0.15,0.15 h -2.7 C 105.0672,87 105,87.06716 105,87.15 V 90 Z m -6,0 H 96 V 87.15 C 96,87.067157 96.067157,87 96.15,87 h 2.7 c 0.08284,0 0.15,0.06716 0.15,0.15 v 2.7 C 99,89.93284 98.93284,90 98.85,90 Z m -69,0 h -2.7 C 27.067157,90 27,89.932843 27,89.85 V 87 h 3 v 3 z m 3,-3 H 30 v -3 h 3 v 2.85 C 33,86.93284 32.93284,87 32.85,87 Z m -6,0 H 24 V 84.15 C 24,84.067157 23.932843,84 23.85,84 H 21 v -3 h 2.85 C 23.932843,81 24,80.932843 24,80.85 V 78 h 2.85 C 26.932843,78 27,77.932843 27,77.85 V 72 h 5.85 C 32.932843,72 33,71.932843 33,71.85 V 69 h 2.85 c 0.08284,0 0.15,0.06716 0.15,0.15 v 2.7 C 36,71.93284 36.06716,72 36.15,72 H 39 v 2.85 C 39,74.93284 38.93284,75 38.85,75 h -8.7 C 30.067157,75 30,75.067157 30,75.15 v 2.7 c 0,0.08284 0.06716,0.15 0.15,0.15 h 2.7 C 32.93284,78 33,78.06716 33,78.15 V 81 H 30.15 C 30.067157,81 30,81.067157 30,81.15 V 84 H 27.15 C 27.067157,84 27,84.067157 27,84.15 V 87 Z m 9,-3 H 33 v -3 h 2.85 c 0.08284,0 0.15,0.06716 0.15,0.15 v 2.7 C 36,83.93284 35.93284,84 35.85,84 Z m 87,-3 h -2.7 C 120.0672,81 120,80.93284 120,80.85 v -2.7 C 120,78.06716 119.9328,78 119.85,78 h -2.7 C 117.0672,78 117,77.93284 117,77.85 v -2.7 c 0,-0.08284 0.0672,-0.15 0.15,-0.15 h 2.7 c 0.0828,0 0.15,-0.06716 0.15,-0.15 v -2.7 c 0,-0.08284 0.0672,-0.15 0.15,-0.15 h 2.7 c 0.0828,0 0.15,0.06716 0.15,0.15 v 8.7 c 0,0.08284 -0.0672,0.15 -0.15,0.15 z m -57,0 h -2.7 C 63.067157,81 63,80.932843 63,80.85 V 78 h 2.85 c 0.08284,0 0.15,0.06716 0.15,0.15 v 2.7 C 66,80.93284 65.93284,81 65.85,81 Z m -6,0 h -2.7 C 57.067157,81 57,80.932843 57,80.85 v -5.7 C 57,75.067157 56.932843,75 56.85,75 h -2.7 C 54.067157,75 54,75.067157 54,75.15 v 2.7 C 54,77.93284 53.93284,78 53.85,78 h -2.7 C 51.067157,78 51,77.932843 51,77.85 V 72 H 62.85 C 62.93284,72 63,72.06716 63,72.15 V 78 H 60.15 C 60.067157,78 60,78.067157 60,78.15 v 2.7 C 60,80.93284 59.93284,81 59.85,81 Z m -12,0 H 45 V 78.15 C 45,78.067157 45.067157,78 45.15,78 h 2.7 c 0.08284,0 0.15,0.06716 0.15,0.15 v 2.7 C 48,80.93284 47.93284,81 47.85,81 Z m 66,-3 h -2.7 C 111.0672,78 111,77.93284 111,77.85 v -8.7 c 0,-0.08284 0.0672,-0.15 0.15,-0.15 h 2.7 c 0.0828,0 0.15,0.06716 0.15,0.15 v 8.7 c 0,0.08284 -0.0672,0.15 -0.15,0.15 z m -90,0 H 21 V 75.15 C 21,75.067157 21.067157,75 21.15,75 h 2.7 C 23.93284,75 24,75.06716 24,75.15 V 78 Z m 78,-6 H 99 V 66.15 C 99,66.067157 99.067157,66 99.15,66 H 102 v 6 z m -9,0 H 90 v -3 h 3 v 2.85 C 93,71.93284 92.93284,72 92.85,72 Z m -12,0 h -2.7 C 78.067157,72 78,71.932843 78,71.85 v -8.7 C 78,63.067157 78.067157,63 78.15,63 H 84 v 5.85 C 84,68.93284 83.93284,69 83.85,69 h -2.7 C 81.067157,69 81,69.067157 81,69.15 v 2.7 C 81,71.93284 80.93284,72 80.85,72 Z m -30,0 h -5.7 C 45.067157,72 45,71.932843 45,71.85 V 69 h 2.85 C 47.93284,69 48,68.93284 48,68.85 v -5.7 C 48,63.067157 47.932843,63 47.85,63 h -2.7 C 45.067157,63 45,63.067157 45,63.15 V 69 H 42 V 66.15 C 42,66.067157 41.932843,66 41.85,66 H 33 V 63.15 C 33,63.067157 32.932843,63 32.85,63 H 30 v -3 h 2.85 C 32.932843,60 33,59.932843 33,59.85 V 57 h 2.85 C 35.932843,57 36,56.932843 36,56.85 V 45.15 C 36,45.067157 35.932843,45 35.85,45 h -5.7 C 30.067157,45 30,45.067157 30,45.15 v 2.7 c 0,0.08284 0.06716,0.15 0.15,0.15 h 2.7 c 0.08284,0 0.15,0.06716 0.15,0.15 v 2.7 C 33,50.93284 32.93284,51 32.85,51 h -2.7 C 30.067157,51 30,51.067157 30,51.15 v 2.7 c 0,0.08284 0.06716,0.15 0.15,0.15 h 2.7 C 32.93284,54 33,54.06716 33,54.15 V 57 H 30.15 C 30.067157,57 30,57.067157 30,57.15 V 60 H 27.15 C 27.067157,60 27,59.932843 27,59.85 v -2.7 C 27,57.067157 26.932843,57 26.85,57 h -5.7 C 21.067157,57 21,57.067157 21,57.15 V 60 h -3 v -6 h 2.85 C 20.93284,54 21,53.93284 21,53.85 v -5.7 C 21,48.067157 21.067157,48 21.15,48 h 2.7 c 0.08284,0 0.15,0.06716 0.15,0.15 v 5.7 c 0,0.08284 0.06716,0.15 0.15,0.15 h 2.7 C 26.93284,54 27,53.93284 27,53.85 v -8.7 C 27,45.067157 26.932843,45 26.85,45 h -2.7 C 24.067157,45 24,44.932843 24,44.85 v -5.7 C 24,39.067157 24.067157,39 24.15,39 H 27 v 2.85 c 0,0.08284 0.06716,0.15 0.15,0.15 h 5.7 C 32.932843,42 33,41.932843 33,41.85 V 39 h 3 v 2.85 c 0,0.08284 0.06716,0.15 0.15,0.15 h 5.7 C 41.93284,42 42,42.06716 42,42.15 V 45 H 39.15 C 39.067157,45 39,45.067157 39,45.15 v 8.7 c 0,0.08284 0.06716,0.15 0.15,0.15 h 2.7 C 41.93284,54 42,53.93284 42,53.85 v -2.7 C 42,51.067157 42.067157,51 42.15,51 h 2.7 c 0.08284,0 0.15,0.06716 0.15,0.15 v 2.7 c 0,0.08284 0.06716,0.15 0.15,0.15 h 2.7 c 0.08284,0 0.15,0.06716 0.15,0.15 v 2.7 C 48,56.93284 47.93284,57 47.85,57 h -5.7 C 42.067157,57 42,57.067157 42,57.15 v 2.7 c 0,0.08284 0.06716,0.15 0.15,0.15 h 8.7 c 0.08284,0 0.15,0.06716 0.15,0.15 v 5.7 c 0,0.08284 0.06716,0.15 0.15,0.15 h 2.7 c 0.08284,0 0.15,0.06716 0.15,0.15 v 2.7 C 54,68.93284 53.93284,69 53.85,69 h -2.7 C 51.067157,69 51,69.067157 51,69.15 V 72 Z m -9,0 H 39 V 69.15 C 39,69.067157 39.067157,69 39.15,69 H 42 v 2.85 C 42,71.93284 41.93284,72 41.85,72 Z m -15,0 h -8.7 C 18.067157,72 18,71.932843 18,71.85 v -2.7 C 18,69.067157 18.067157,69 18.15,69 h 2.7 C 20.932843,69 21,68.932843 21,68.85 V 60 h 2.85 c 0.08284,0 0.15,0.06716 0.15,0.15 v 2.7 C 24,62.93284 24.06716,63 24.15,63 H 30 v 3 H 24.15 C 24.067157,66 24,66.067157 24,66.15 v 2.7 c 0,0.08284 0.06716,0.15 0.15,0.15 h 2.7 C 26.93284,69 27,69.06716 27,69.15 V 72 Z m 96,-3 h -2.7 C 120.0672,69 120,68.93284 120,68.85 v -2.7 C 120,66.06716 119.9328,66 119.85,66 h -8.7 C 111.06716,66 111,65.932843 111,65.85 V 60 h 2.85 c 0.0828,0 0.15,0.06716 0.15,0.15 v 2.7 c 0,0.08284 0.0672,0.15 0.15,0.15 h 2.7 c 0.0828,0 0.15,-0.06716 0.15,-0.15 v -2.7 c 0,-0.08284 0.0672,-0.15 0.15,-0.15 h 5.7 c 0.0828,0 0.15,0.06716 0.15,0.15 v 8.7 c 0,0.08284 -0.0672,0.15 -0.15,0.15 z m -27,0 H 93 v -6 h 3 v 5.85 C 96,68.93284 95.93284,69 95.85,69 Z m -6,0 h -2.7 C 87.067157,69 87,68.932843 87,68.85 V 63 h 3 v 6 z m -18,0 h -2.7 C 69.067157,69 69,68.932843 69,68.85 v -8.7 C 69,60.067157 68.932843,60 68.85,60 h -2.7 C 66.067157,60 66,59.932843 66,59.85 v -2.7 C 66,57.067157 65.932843,57 65.85,57 H 63 V 54.15 C 63,54.067157 62.932843,54 62.85,54 H 60 v -3 h 5.85 c 0.08284,0 0.15,0.06716 0.15,0.15 v 2.7 c 0,0.08284 0.06716,0.15 0.15,0.15 h 2.7 C 68.93284,54 69,53.93284 69,53.85 v -2.7 C 69,51.067157 69.067157,51 69.15,51 h 2.7 C 71.93284,51 72,50.93284 72,50.85 v -2.7 C 72,48.067157 72.067157,48 72.15,48 h 2.7 C 74.93284,48 75,48.06716 75,48.15 V 54 H 72.15 C 72.067157,54 72,54.067157 72,54.15 v 5.7 c 0,0.08284 0.06716,0.15 0.15,0.15 h 2.7 c 0.08284,0 0.15,0.06716 0.15,0.15 v 5.7 C 75,65.93284 74.93284,66 74.85,66 h -2.7 C 72.067157,66 72,66.067157 72,66.15 v 2.7 C 72,68.93284 71.93284,69 71.85,69 Z m -12,0 h -2.7 C 57.067157,69 57,68.932843 57,68.85 v -5.7 C 57,63.067157 57.067157,63 57.15,63 h 2.7 C 59.93284,63 60,62.93284 60,62.85 v -2.7 C 60,60.067157 59.932843,60 59.85,60 h -5.7 C 54.067157,60 54,59.932843 54,59.85 V 57 h 2.85 C 56.93284,57 57,56.93284 57,56.85 v -2.7 C 57,54.067157 57.067157,54 57.15,54 H 60 v 2.85 C 60,56.93284 60.06716,57 60.15,57 H 63 v 5.85 c 0,0.08284 0.06716,0.15 0.15,0.15 h 2.7 c 0.08284,0 0.15,0.06716 0.15,0.15 v 2.7 C 66,65.93284 65.93284,66 65.85,66 h -5.7 C 60.067157,66 60,66.067157 60,66.15 v 2.7 C 60,68.93284 59.93284,69 59.85,69 Z m -27,0 h -2.7 C 30.067157,69 30,68.932843 30,68.85 V 66 h 3 v 3 z m -18,0 h -2.7 C 12.067157,69 12,68.932843 12,68.85 v -2.7 C 12,66.067157 12.067157,66 12.15,66 h 2.7 c 0.08284,0 0.15,0.06716 0.15,0.15 v 2.7 C 15,68.93284 14.93284,69 14.85,69 Z m 93,-3 H 102 v -5.85 c 0,-0.08284 0.0672,-0.15 0.15,-0.15 h 2.7 c 0.0828,0 0.15,-0.06716 0.15,-0.15 v -2.7 c 0,-0.08284 0.0672,-0.15 0.15,-0.15 h 5.7 c 0.0828,0 0.15,0.06716 0.15,0.15 V 60 h -2.85 c -0.0828,0 -0.15,0.06716 -0.15,0.15 v 5.7 c 0,0.08284 -0.0672,0.15 -0.15,0.15 z m -9,-3 H 96 V 60.15 C 96,60.067157 95.932843,60 95.85,60 h -2.7 C 93.067157,60 93,60.067157 93,60.15 V 63 H 90 V 57.15 C 90,57.067157 90.067157,57 90.15,57 h 2.7 C 92.932843,57 93,56.932843 93,56.85 V 45.15 C 93,45.067157 92.932843,45 92.85,45 h -2.7 C 90.067157,45 90,44.932843 90,44.85 v -5.7 C 90,39.067157 90.067157,39 90.15,39 h 2.7 C 92.932843,39 93,38.932843 93,38.85 V 36 h 17.85 c 0.0828,0 0.15,0.06716 0.15,0.15 v 2.7 c 0,0.08284 -0.0672,0.15 -0.15,0.15 h -5.7 c -0.0828,0 -0.15,0.06716 -0.15,0.15 v 2.7 c 0,0.08284 -0.0672,0.15 -0.15,0.15 h -2.7 C 102.0672,42 102,41.93284 102,41.85 v -2.7 C 102,39.06716 101.9328,39 101.85,39 h -2.7 C 99.067157,39 99,39.067157 99,39.15 v 5.7 c 0,0.08284 0.06716,0.15 0.15,0.15 h 8.7 c 0.0828,0 0.15,-0.06716 0.15,-0.15 v -2.7 C 108,42.06716 108.0672,42 108.15,42 H 114 v 2.85 c 0,0.08284 -0.0672,0.15 -0.15,0.15 h -2.7 C 111.0672,45 111,45.06716 111,45.15 V 48 h -2.85 c -0.0828,0 -0.15,0.06716 -0.15,0.15 v 5.7 c 0,0.08284 -0.0672,0.15 -0.15,0.15 h -2.7 C 105.0672,54 105,53.93284 105,53.85 v -2.7 C 105,51.067157 104.93284,51 104.85,51 H 102 V 48.15 C 102,48.06716 101.9328,48 101.85,48 h -2.7 C 99.067157,48 99,48.067157 99,48.15 v 2.7 C 99,50.93284 99.06716,51 99.15,51 H 102 v 5.85 c 0,0.08284 -0.0672,0.15 -0.15,0.15 H 99 V 54.15 C 99,54.067157 98.932843,54 98.85,54 h -2.7 C 96.067157,54 96,54.067157 96,54.15 v 2.7 C 96,56.93284 96.06716,57 96.15,57 H 99 v 5.85 C 99,62.93284 98.93284,63 98.85,63 Z m -12,0 H 84 V 60.15 C 84,60.067157 83.932843,60 83.85,60 h -5.7 C 78.067157,60 78,59.932843 78,59.85 v -2.7 C 78,57.067157 77.932843,57 77.85,57 h -2.7 C 75.067157,57 75,56.932843 75,56.85 V 54 h 5.85 C 80.93284,54 81,53.93284 81,53.85 v -5.7 C 81,48.067157 80.932843,48 80.85,48 h -2.7 C 78.067157,48 78,47.932843 78,47.85 V 45 h 2.85 C 80.93284,45 81,44.93284 81,44.85 v -5.7 C 81,39.067157 81.067157,39 81.15,39 h 2.7 C 83.93284,39 84,38.93284 84,38.85 v -8.7 C 84,30.067157 84.067157,30 84.15,30 h 2.7 c 0.08284,0 0.15,0.06716 0.15,0.15 v 14.7 C 87,44.93284 86.93284,45 86.85,45 h -2.7 C 84.067157,45 84,45.067157 84,45.15 v 2.7 c 0,0.08284 0.06716,0.15 0.15,0.15 h 2.7 c 0.08284,0 0.15,0.06716 0.15,0.15 v 2.7 c 0,0.08284 0.06716,0.15 0.15,0.15 h 2.7 c 0.08284,0 0.15,0.06716 0.15,0.15 v 2.7 C 90,53.93284 89.93284,54 89.85,54 h -5.7 C 84.067157,54 84,54.067157 84,54.15 v 2.7 c 0,0.08284 0.06716,0.15 0.15,0.15 h 2.7 C 86.93284,57 87,57.06716 87,57.15 V 63 Z m -69,0 h -5.7 C 12.067157,63 12,62.932843 12,62.85 v -2.7 C 12,60.067157 12.067157,60 12.15,60 H 18 v 2.85 C 18,62.93284 17.93284,63 17.85,63 Z m 105,-6 h -2.7 C 120.0672,57 120,56.93284 120,56.85 v -2.7 C 120,54.06716 119.9328,54 119.85,54 h -8.7 C 111.06716,54 111,53.932843 111,53.85 V 48 h 2.85 c 0.0828,0 0.15,0.06716 0.15,0.15 v 2.7 c 0,0.08284 0.0672,0.15 0.15,0.15 h 2.7 c 0.0828,0 0.15,-0.06716 0.15,-0.15 v -8.7 C 117,42.067157 116.93284,42 116.85,42 H 114 v -2.85 c 0,-0.08284 0.0672,-0.15 0.15,-0.15 h 2.7 c 0.0828,0 0.15,-0.06716 0.15,-0.15 v -2.7 c 0,-0.08284 0.0672,-0.15 0.15,-0.15 h 5.7 c 0.0828,0 0.15,0.06716 0.15,0.15 v 20.7 c 0,0.08284 -0.0672,0.15 -0.15,0.15 z m -69,0 h -2.7 C 51.067157,57 51,56.932843 51,56.85 v -5.7 C 51,51.067157 51.067157,51 51.15,51 h 2.7 C 53.93284,51 54,51.06716 54,51.15 V 57 Z m -39,0 h -2.7 C 12.067157,57 12,56.932843 12,56.85 v -2.7 C 12,54.067157 12.067157,54 12.15,54 H 15 v 2.85 C 15,56.93284 14.93284,57 14.85,57 Z m 3,-3 H 15 V 51.15 C 15,51.067157 15.067157,51 15.15,51 h 2.7 C 17.93284,51 18,51.06716 18,51.15 V 54 Z m 42,-3 h -2.7 C 57.067157,51 57,50.932843 57,50.85 V 39 h 2.85 C 59.93284,39 60,38.93284 60,38.85 v -2.7 C 60,36.067157 60.067157,36 60.15,36 H 66 v 2.85 C 66,38.93284 65.93284,39 65.85,39 h -2.7 C 63.067157,39 63,39.067157 63,39.15 V 42 H 60.15 C 60.067157,42 60,42.067157 60,42.15 V 51 Z m 9,-3 h -2.7 C 66.067157,48 66,47.932843 66,47.85 V 45 h 3 v 2.85 C 69,47.93284 68.93284,48 68.85,48 Z m -18,0 h -8.7 C 42.067157,48 42,47.932843 42,47.85 V 45 h 5.85 C 47.93284,45 48,44.93284 48,44.85 v -5.7 C 48,39.067157 47.932843,39 47.85,39 h -2.7 C 45.067157,39 45,38.932843 45,38.85 v -2.7 C 45,36.067157 45.067157,36 45.15,36 h 5.7 c 0.08284,0 0.15,0.06716 0.15,0.15 v 2.7 C 51,38.93284 51.06716,39 51.15,39 H 54 v 2.85 C 54,41.93284 53.93284,42 53.85,42 h -2.7 C 51.067157,42 51,42.067157 51,42.15 v 5.7 C 51,47.93284 50.93284,48 50.85,48 Z m -33,0 h -2.7 C 15.067157,48 15,47.932843 15,47.85 v -2.7 C 15,45.067157 15.067157,45 15.15,45 H 18 v 2.85 C 18,47.93284 17.93284,48 17.85,48 Z m 60,-3 H 69 v -9 h 3 v 2.85 c 0,0.08284 0.06716,0.15 0.15,0.15 h 5.7 C 77.93284,39 78,39.06716 78,39.15 V 45 Z m -12,0 h -2.7 C 63.067157,45 63,44.932843 63,44.85 V 42 h 2.85 C 65.93284,42 66,42.06716 66,42.15 V 45 Z m -45,0 H 18 v -3 h 2.85 c 0.08284,0 0.15,0.06716 0.15,0.15 v 2.7 C 21,44.93284 20.93284,45 20.85,45 Z m -3,-3 h -5.7 C 12.067157,42 12,41.932843 12,41.85 v -5.7 C 12,36.067157 12.067157,36 12.15,36 h 8.7 c 0.08284,0 0.15,0.06716 0.15,0.15 v 2.7 C 21,38.93284 20.93284,39 20.85,39 h -2.7 C 18.067157,39 18,39.067157 18,39.15 V 42 Z m 39,-3 H 54 V 30.15 C 54,30.067157 54.067157,30 54.15,30 h 2.7 C 56.93284,30 57,30.06716 57,30.15 V 39 Z m -15,0 H 36 V 24.15 C 36,24.067157 36.067157,24 36.15,24 h 2.7 c 0.08284,0 0.15,0.06716 0.15,0.15 v 2.7 C 39,26.93284 39.06716,27 39.15,27 H 45 v 5.85 C 45,32.932843 44.932843,33 44.85,33 H 42 V 30.15 C 42,30.067157 41.932843,30 41.85,30 h -2.7 C 39.067157,30 39,30.067157 39,30.15 v 2.7 C 39,32.93284 39.06716,33 39.15,33 H 42 v 5.85 C 42,38.93284 41.93284,39 41.85,39 Z m -9,0 H 27 V 36.15 C 27,36.067157 27.067157,36 27.15,36 h 5.7 C 32.93284,36 33,36.06716 33,36.15 V 39 Z m 60,-3 h -2.7 C 90.067157,36 90,35.932843 90,35.85 v -8.7 C 90,27.067157 89.932843,27 89.85,27 h -2.7 C 87.067157,27 87,26.932843 87,26.85 v -8.7 C 87,18.067157 86.932843,18 86.85,18 h -2.7 C 84.067157,18 84,17.932843 84,17.85 v -2.7 C 84,15.067157 84.067157,15 84.15,15 h 5.7 c 0.08284,0 0.15,0.06716 0.15,0.15 v 2.7 c 0,0.08284 0.06716,0.15 0.15,0.15 h 2.7 C 92.93284,18 93,18.06716 93,18.15 V 36 Z m -12,0 h -2.7 C 78.067157,36 78,35.932843 78,35.85 v -5.7 C 78,30.067157 77.932843,30 77.85,30 H 75 V 27.15 C 75,27.067157 75.067157,27 75.15,27 h 2.7 C 77.932843,27 78,26.932843 78,26.85 V 24 h 3 V 35.85 C 81,35.93284 80.93284,36 80.85,36 Z m -6,0 H 72 V 30.15 C 72,30.067157 72.067157,30 72.15,30 H 75 v 5.85 C 75,35.93284 74.93284,36 74.85,36 Z m -6,0 H 66 V 30.15 C 66,30.067157 65.932843,30 65.85,30 H 63 V 27.15 C 63,27.067157 63.067157,27 63.15,27 h 2.7 C 65.932843,27 66,26.932843 66,26.85 V 24 h 2.85 C 68.93284,24 69,24.06716 69,24.15 V 36 Z m 54,-3 h -20.7 C 102.0672,33 102,32.93284 102,32.85 v -20.7 c 0,-0.08284 0.0672,-0.15 0.15,-0.15 h 20.7 c 0.0828,0 0.15,0.06716 0.15,0.15 v 20.7 c 0,0.08284 -0.0672,0.15 -0.15,0.15 z m -24,0 h -2.7 C 96.067157,33 96,32.932843 96,32.85 v -5.7 C 96,27.067157 96.067157,27 96.15,27 h 2.7 c 0.08284,0 0.15,0.06716 0.15,0.15 v 5.7 C 99,32.93284 98.93284,33 98.85,33 Z m -36,0 h -2.7 C 60.067157,33 60,32.932843 60,32.85 v -2.7 C 60,30.067157 60.067157,30 60.15,30 H 63 v 2.85 C 63,32.93284 62.93284,33 62.85,33 Z m -12,0 h -2.7 C 48.067157,33 48,32.932843 48,32.85 v -5.7 C 48,27.067157 47.932843,27 47.85,27 H 45 V 21.15 C 45,21.067157 45.067157,21 45.15,21 h 5.7 C 50.93284,21 51,20.93284 51,20.85 v -5.7 C 51,15.067157 51.067157,15 51.15,15 h 2.7 c 0.08284,0 0.15,0.06716 0.15,0.15 v 2.7 c 0,0.08284 0.06716,0.15 0.15,0.15 h 5.7 C 59.932843,18 60,17.932843 60,17.85 V 15 h 5.85 C 65.93284,15 66,14.93284 66,14.85 v -2.7 C 66,12.067157 66.067157,12 66.15,12 h 2.7 c 0.08284,0 0.15,0.06716 0.15,0.15 v 5.7 C 69,17.93284 69.06716,18 69.15,18 H 72 v 2.85 C 72,20.93284 71.93284,21 71.85,21 h -5.7 C 66.067157,21 66,21.067157 66,21.15 V 24 H 63.15 C 63.067157,24 63,23.932843 63,23.85 v -2.7 C 63,21.067157 62.932843,21 62.85,21 h -2.7 C 60.067157,21 60,21.067157 60,21.15 v 2.7 C 60,23.93284 59.93284,24 59.85,24 h -2.7 C 57.067157,24 57,24.067157 57,24.15 v 2.7 C 57,26.93284 56.93284,27 56.85,27 h -2.7 C 54.067157,27 54,26.932843 54,26.85 v -2.7 C 54,24.067157 53.932843,24 53.85,24 h -2.7 C 51.067157,24 51,24.067157 51,24.15 v 8.7 C 51,32.93284 50.93284,33 50.85,33 Z m -18,0 H 12.15 C 12.067157,33 12,32.932843 12,32.85 V 12.15 C 12,12.067157 12.067157,12 12.15,12 h 20.7 c 0.08284,0 0.15,0.06716 0.15,0.15 v 20.7 C 33,32.932843 32.932843,33 32.85,33 Z M 120,29.85 V 15.15 C 120,15.06716 119.9328,15 119.85,15 h -14.7 c -0.0828,0 -0.15,0.06716 -0.15,0.15 v 14.7 c 0,0.08284 0.0672,0.15 0.15,0.15 h 14.7 c 0.0828,0 0.15,-0.06716 0.15,-0.15 z m -90,0 V 15.15 C 30,15.067157 29.932843,15 29.85,15 H 15.15 C 15.067157,15 15,15.067157 15,15.15 v 14.7 c 0,0.08284 0.06716,0.15 0.15,0.15 h 14.7 C 29.932843,30 30,29.932843 30,29.85 Z M 116.85,27 h -8.7 C 108.0672,27 108,26.93284 108,26.85 v -8.7 c 0,-0.08284 0.0672,-0.15 0.15,-0.15 h 8.7 c 0.0828,0 0.15,0.06716 0.15,0.15 v 8.7 c 0,0.08284 -0.0672,0.15 -0.15,0.15 z m -90,0 h -8.7 C 18.067157,27 18,26.932843 18,26.85 v -8.7 C 18,18.067157 18.067157,18 18.15,18 h 8.7 c 0.08284,0 0.15,0.06716 0.15,0.15 v 8.7 C 27,26.93284 26.93284,27 26.85,27 Z m 57,-3 H 81 v -3 h 2.85 c 0.08284,0 0.15,0.06716 0.15,0.15 v 2.7 C 84,23.93284 83.93284,24 83.85,24 Z m -6,0 h -2.7 C 75.067157,24 75,23.932843 75,23.85 v -5.7 C 75,18.067157 74.932843,18 74.85,18 H 72 V 15.15 C 72,15.067157 72.067157,15 72.15,15 h 2.7 C 74.93284,15 75,14.93284 75,14.85 v -2.7 C 75,12.067157 75.067157,12 75.15,12 h 5.7 c 0.08284,0 0.15,0.06716 0.15,0.15 v 2.7 C 81,14.93284 80.93284,15 80.85,15 h -2.7 C 78.067157,15 78,15.067157 78,15.15 v 2.7 c 0,0.08284 0.06716,0.15 0.15,0.15 h 2.7 C 80.93284,18 81,18.06716 81,18.15 V 21 H 78.15 C 78.067157,21 78,21.067157 78,21.15 V 24 Z m 21,-3 h -2.7 C 96.067157,21 96,20.932843 96,20.85 v -2.7 C 96,18.067157 96.067157,18 96.15,18 h 2.7 c 0.08284,0 0.15,0.06716 0.15,0.15 v 2.7 C 99,20.93284 98.93284,21 98.85,21 Z m -57,0 h -2.7 C 39.067157,21 39,20.932843 39,20.85 V 18 h 2.85 c 0.08284,0 0.15,0.06716 0.15,0.15 v 2.7 C 42,20.93284 41.93284,21 41.85,21 Z m 6,-3 h -2.7 C 45.067157,18 45,17.932843 45,17.85 v -2.7 C 45,15.067157 44.932843,15 44.85,15 h -5.7 C 39.067157,15 39,15.067157 39,15.15 V 18 H 36.15 C 36.067157,18 36,17.932843 36,17.85 v -5.7 C 36,12.067157 36.067157,12 36.15,12 h 11.7 c 0.08284,0 0.15,0.06716 0.15,0.15 v 5.7 C 48,17.93284 47.93284,18 47.85,18 Z m 12,-3 h -2.7 C 57.067157,15 57,14.932843 57,14.85 v -2.7 C 57,12.067157 57.067157,12 57.15,12 h 2.7 C 59.93284,12 60,12.06716 60,12.15 V 15 Z"
           id="path2918"
           style="fill:#ff00ff;stroke-width:0.999849;stroke-miterlimit:4;stroke-dasharray:none" />
      </g>
    </g>
  </g>
</svg>
