0
SECTION
2
HEADER
9
$INSUNITS
70
4
9
$ACADVER
1
AC1014
9
$HANDSEED
5
FFFF
0
ENDSEC
0
SECTION
2
TABLES
0
TABLE
2
VPORT
5
8
100
AcDbSymbolTable
0
ENDTAB
0
TABLE
2
LTYPE
5
5
100
AcDbSymbolTable
0
LTYPE
5
14
100
AcDbSymbolTableRecord
100
AcDbLinetypeTableRecord
2
BYBLOCK
70
0
0
LTYPE
5
15
100
AcDbSymbolTableRecord
100
AcDbLinetypeTableRecord
2
BYLAYER
70
0
0
ENDTAB
0
TABLE
2
LAYER
5
2
100
AcDbSymbolTable
70
2
0
LAYER
5
50
100
AcDbSymbolTableRecord
100
AcDbLayerTableRecord
2
0
70
0
6
CONTINUOUS
0
ENDTAB
0
TABLE
2
STYLE
5
3
100
AcDbSymbolTable
70
1
0
STYLE
5
11
100
AcDbSymbolTableRecord
100
AcDbTextStyleTableRecord
2
STANDARD
70
0
0
ENDTAB
0
TABLE
2
VIEW
5
6
100
AcDbSymbolTable
70
0
0
ENDTAB
0
TABLE
2
UCS
5
7
100
AcDbSymbolTable
70
0
0
ENDTAB
0
TABLE
2
APPID
5
9
100
AcDbSymbolTable
70
2
0
APPID
5
12
100
AcDbSymbolTableRecord
100
AcDbRegAppTableRecord
2
ACAD
70
0
0
ENDTAB
0
TABLE
2
DIMSTYLE
5
A
100
AcDbSymbolTable
70
1
0
ENDTAB
0
TABLE
2
BLOCK_RECORD
5
1
100
AcDbSymbolTable
70
1
0
BLOCK_RECORD
5
1F
100
AcDbSymbolTableRecord
100
AcDbBlockTableRecord
2
*MODEL_SPACE
0
BLOCK_RECORD
5
1B
100
AcDbSymbolTableRecord
100
AcDbBlockTableRecord
2
*PAPER_SPACE
0
ENDTAB
0
ENDSEC
0
SECTION
2
BLOCKS
0
BLOCK
5
20
100
AcDbEntity
100
AcDbBlockBegin
2
*MODEL_SPACE
0
ENDBLK
5
21
100
AcDbEntity
100
AcDbBlockEnd
0
BLOCK
5
1C
100
AcDbEntity
100
AcDbBlockBegin
2
*PAPER_SPACE
0
ENDBLK
5
1D
100
AcDbEntity
100
AcDbBlockEnd
0
ENDSEC
0
SECTION
2
ENTITIES
0
LWPOLYLINE
5
100
100
AcDbEntity
8
0
100
AcDbPolyline
90
24
70
1
43
0.0
10
20.885295635784985
20
9.0628391145166241
42
-0.16700487949021553
10
22.57650677296839
20
3.94070091560353
10
20.577109204469821
20
3.94070091560353
10
20.57710920446981
20
0.96298305910770932
10
14.377109204469827
20
0.96298305910771376
10
14.377109204469836
20
3.9407009156035322
10
9.0771092044698509
20
3.9407009156035322
10
9.077109204469842
20
0.96298305910771376
10
2.8771092044698499
20
0.9629830591077182
10
2.8771092044698587
20
3.9407009156035344
10
0.87771163597135438
20
3.9407009156035362
42
-0.16700487949020493
10
2.568922773154565
20
9.0628391145163434
42
0.21184341286325054
10
3.5973760896138129
20
49.923231739225614
42
-0.086888890794159901
10
10.327109204469833
20
51.591885419273652
10
10.327109204469833
20
38.045688477715743
10
10.537607960681052
20
35.940700915603507
10
10.327109204469833
20
35.940700915603507
10
10.327109204469833
20
26.140700915603524
10
13.127109204469845
20
26.140700915603521
10
13.127109204469845
20
35.940700915603507
10
12.916610448258625
20
35.940700915603507
10
13.127109204469845
20
38.045688477715636
10
13.127109204469853
20
51.591885419273666
42
-0.086888890794157889
10
19.856842319325896
20
49.923231739225578
42
0.21184341286324865
0
LWPOLYLINE
5
101
100
AcDbEntity
8
0
100
AcDbPolyline
90
26
70
1
43
0.0
10
65.595164325850661
20
56.95254229397824
10
68.503107304771348
20
57.731723266815663
42
-0.040580551410338776
10
70.625423474612006
20
49.811131491245305
10
67.717480495691277
20
49.031950518407719
42
-0.036551780768906528
10
68.428536880645112
20
42.118246077062587
10
56.449129570339252
20
42.118246077062608
10
56.449129570339267
20
41.907747320851392
10
54.34414200822718
20
42.118246077062608
10
46.449129570339295
20
42.118246077062594
10
46.449129570339295
20
39.318246077062597
10
54.34414200822718
20
39.318246077062604
10
56.449129570339252
20
39.528744833273819
10
56.449129570339252
20
39.318246077062604
10
68.42853688064524
20
39.318246077062582
42
-0.036551780768911975
10
67.717480495691376
20
32.404541635717401
10
70.62542347461202
20
31.62536066287986
42
-0.040580551410337215
10
68.503107304771319
20
23.704768887309516
10
65.595164325850732
20
24.483949860147099
42
-0.025705040781660634
10
63.693041528705692
20
19.977966230740783
42
-0.36838006377886551
10
59.220069961786017
20
29.778367948102023
42
0.018573943830388698
10
59.926187839350916
20
32.656390394855947
42
0.19271457956214455
10
22.466213343633235
20
32.589384471529854
42
-0.21123299382106456
10
22.466213343633001
20
48.847107682594803
42
0.1927145795620876
10
59.92618783934563
20
48.780101759267431
42
0.01857394383038383
10
59.22006996178056
20
51.658124206021625
42
-0.36838006377886323
10
63.693041528703205
20
61.45852592338953
42
-0.025705040781657969
0
SPLINE
5
102
100
AcDbEntity
8
0
100
AcDbSpline
70
0
71
3
72
35
73
31
74
0
42
0.000000001
43
0.0000000001
44
0.0000000001
40
-3.1415926535897931
40
-3.1415926535897931
40
-3.1415926535897931
40
-3.1415926535897931
40
-2.510541950529138
40
-2.510541950529138
40
-2.510541950529138
40
-1.8279930348819629
40
-1.8279930348819629
40
-1.8279930348819629
40
-1.1131180677910368
40
-1.1131180677910368
40
-1.1131180677910368
40
-0.46448983836938296
40
-0.46448983836938296
40
-0.46448983836938296
40
0.13111535545013897
40
0.13111535545013897
40
0.13111535545013897
40
0.77945219117950981
40
0.77945219117950981
40
0.77945219117950981
40
1.5123427946070183
40
1.5123427946070183
40
1.5123427946070183
40
2.2236982039524378
40
2.2236982039524378
40
2.2236982039524378
40
2.8603845246460486
40
2.8603845246460486
40
2.8603845246460486
40
3.1415926535897931
40
3.1415926535897931
40
3.1415926535897931
40
3.1415926535897931
10
21.388856062745027
20
12.897544223706758
30
0
10
21.388856062745027
20
10.593410852473573
30
0
10
22.91654661568419
20
8.3092524591305441
30
0
10
25.652407870562939
20
6.4720958492967728
30
0
10
28.611534805723217
20
4.4850142315530483
30
0
10
32.979177105039696
20
3.025610344980274
30
0
10
37.811289639826306
20
2.401968154144063
30
0
10
42.872254810373676
20
1.7487897805064323
30
0
10
48.404182671352274
20
2.021598355854537
30
0
10
53.100725554952177
20
3.1567242313403066
30
0
10
57.362044576079413
20
4.1866591439911049
30
0
10
60.912460858830386
20
5.9135769781928049
30
0
10
63.053630174802734
20
8.0104559154505672
30
0
10
65.019766564791851
20
9.9359225066210861
30
0
10
65.791955713860645
20
12.175944521474522
30
0
10
65.213337843044982
20
14.3289532040793
30
0
10
64.583492295434183
20
16.672577556355876
30
0
10
62.367732920377215
20
18.883024023878662
30
0
10
59.024420987892086
20
20.543175969403265
30
0
10
55.245086289303075
20
22.41983898480651
30
0
10
50.034494117810283
20
23.575375139710207
30
0
10
44.679571576982781
20
23.729142866774531
30
0
10
39.481997616791936
20
23.878392296250635
30
0
10
34.194211208138562
20
23.08435036369497
30
0
10
30.05273320407316
20
21.530154584398172
30
0
10
26.345975150362307
20
20.139098609623794
30
0
10
23.571174357646399
20
18.153412864733127
30
0
10
22.263206071069508
20
15.931577886223472
30
0
10
21.685509797988995
20
14.950249975097933
30
0
10
21.388856062745027
20
13.924309634186063
30
0
10
21.388856062745027
20
12.89754422370676
30
0
0
LWPOLYLINE
5
103
100
AcDbEntity
8
0
100
AcDbPolyline
90
4
70
1
43
0.0
10
26.599753245673263
20
14.297544223706755
10
26.599753245673256
20
11.497544223706759
10
34.631818150546266
20
11.497544223706758
10
34.631818150546266
20
14.297544223706753
0
LWPOLYLINE
5
104
100
AcDbEntity
8
0
100
AcDbPolyline
90
4
70
1
43
0.0
10
41.954891249280109
20
10.047544223706758
10
41.954891249280109
20
4.2475442237067673
10
44.838772371648297
20
4.2475442237067647
10
44.838772371648297
20
10.047544223706756
0
LWPOLYLINE
5
105
100
AcDbEntity
8
0
100
AcDbPolyline
90
4
70
1
43
0.0
10
41.954891249280109
20
21.54754422370674
10
41.954891249280109
20
15.747544223706749
10
44.838772371648297
20
15.747544223706747
10
44.838772371648297
20
21.547544223706737
0
LWPOLYLINE
5
106
100
AcDbEntity
8
0
100
AcDbPolyline
90
4
70
1
43
0.0
10
52.16184547038214
20
14.297544223706746
10
52.16184547038214
20
11.49754422370675
10
60.193910375255165
20
11.497544223706749
10
60.193910375255165
20
14.297544223706744
0
LWPOLYLINE
5
107
100
AcDbEntity
8
0
100
AcDbPolyline
90
4
70
1
43
0.0
10
26.449129570339352
20
42.11824607706258
10
26.449129570339352
20
39.318246077062582
10
36.249129570339321
20
39.318246077062597
10
36.249129570339321
20
42.118246077062587
0
LWPOLYLINE
5
108
100
AcDbEntity
8
0
100
AcDbPolyline
90
4
70
1
43
0.0
10
13.127109204469845
20
16.140700915603539
10
13.127109204469845
20
20.940700915603529
10
10.327109204469833
20
20.940700915603536
10
10.327109204469833
20
16.140700915603539
0
LINE
5
109
100
AcDbEntity
8
0
100
AcDbLine
10
61.396831553657009
20
6.6511812336006244
30
0
11
61.396831809783301
21
11.397544211603028
31
0
0
LINE
5
110
100
AcDbEntity
8
0
100
AcDbLine
10
61.396831810441626
20
14.397544223706742
30
0
11
61.396830742315835
21
19.143038764635548
31
0
0
LINE
5
111
100
AcDbEntity
8
0
100
AcDbLine
10
58.396831840031993
20
14.297544223706744
30
0
11
58.396831752017718
21
19.060251037766079
31
0
0
LINE
5
112
100
AcDbEntity
8
0
100
AcDbLine
10
58.396831753261992
20
6.7307894354044784
30
0
11
58.396831839365547
21
11.497544223706749
31
0
0
LINE
5
113
100
AcDbEntity
8
0
100
AcDbLine
10
55.39683170002418
20
3.800557986598323
30
0
11
55.396831802565515
21
9.8975442237067508
31
0
0
LINE
5
114
100
AcDbEntity
8
0
100
AcDbLine
10
55.396831810464192
20
15.897544223706745
30
0
11
55.396831685909554
21
21.990225465725011
31
0
0
LINE
5
115
100
AcDbEntity
8
0
100
AcDbLine
10
52.396832780516142
20
14.297544223706746
30
0
11
52.396828621897328
21
21.156754277109485
31
0
0
LINE
5
116
100
AcDbEntity
8
0
100
AcDbLine
10
52.396830455753303
20
4.6387197439119232
30
0
11
52.396832222635659
21
11.49754422370675
31
0
0
LINE
5
117
100
AcDbEntity
8
0
100
AcDbLine
10
49.396828203438645
20
2.4617884724999595
30
0
11
49.396831810463837
21
11.397544217050042
31
0
0
LINE
5
118
100
AcDbEntity
8
0
100
AcDbLine
10
49.396831810464121
20
14.397544223706745
30
0
11
49.396831810461691
21
23.331870605147309
31
0
0
LINE
5
119
100
AcDbEntity
8
0
100
AcDbLine
10
46.396831810464207
20
12.897544223706753
30
0
11
46.39683137201844
21
22.035647559982998
31
0
0
LINE
5
120
100
AcDbEntity
8
0
100
AcDbLine
10
46.396831810316542
20
3.7528466657961368
30
0
11
46.396831810464207
21
12.897544223706753
31
0
0
LINE
5
121
100
AcDbEntity
8
0
100
AcDbLine
10
40.396831810464207
20
12.897544223706754
30
0
11
40.396832248909973
21
22.035647559982998
31
0
0
LINE
5
122
100
AcDbEntity
8
0
100
AcDbLine
10
37.396831810464278
20
14.397544223706751
30
0
11
37.396831810466693
21
23.330306599223817
31
0
0
LINE
5
123
100
AcDbEntity
8
0
100
AcDbLine
10
37.396831810469656
20
2.4576634232458483
30
0
11
37.396831810464555
21
11.397544222497057
31
0
0
LINE
5
124
100
AcDbEntity
8
0
100
AcDbLine
10
40.396831810611857
20
3.752846665796139
30
0
11
40.396831810464207
21
12.897544223706754
31
0
0
LINE
5
125
100
AcDbEntity
8
0
100
AcDbLine
10
34.39683316517511
20
4.6387197439119294
30
0
11
34.396831398292747
21
11.497544223706758
31
0
0
LINE
5
126
100
AcDbEntity
8
0
100
AcDbLine
10
34.396830840412271
20
14.297544223706753
30
0
11
34.396834999031078
21
21.156754277109489
31
0
0
LINE
5
127
100
AcDbEntity
8
0
100
AcDbLine
10
31.396831810464221
20
15.897544223706753
30
0
11
31.396831935364219
21
21.995344353056137
31
0
0
LINE
5
128
100
AcDbEntity
8
0
100
AcDbLine
10
31.396831836858698
20
3.8054190126613396
30
0
11
31.396831818362884
21
9.8975442237067597
31
0
0
LINE
5
129
100
AcDbEntity
8
0
100
AcDbLine
10
28.396831867666414
20
6.730789435404489
30
0
11
28.396831781562874
21
11.497544223706759
31
0
0
LINE
5
130
100
AcDbEntity
8
0
100
AcDbLine
10
28.396831780896417
20
14.297544223706753
30
0
11
28.396831868910692
21
19.06025103776609
31
0
0
LINE
5
131
100
AcDbEntity
8
0
100
AcDbLine
10
25.396831810486795
20
14.397544223706756
30
0
11
25.39683280850425
21
19.140623855846322
31
0
0
LINE
5
132
100
AcDbEntity
8
0
100
AcDbLine
10
25.396833053437867
20
6.6474748711754428
30
0
11
25.396831811145113
21
11.39754422370676
31
0
0
LWPOLYLINE
5
133
100
AcDbEntity
8
0
100
AcDbPolyline
90
4
70
1
43
0.0
10
46.048829965997058
20
34.928662450409519
10
36.048829965997058
20
34.928662450409519
10
36.048829965997058
20
24.928662450409522
10
46.048829965997058
20
24.928662450409522
0
ENDSEC
0
SECTION
2
OBJECTS
0
DICTIONARY
5
C
100
AcDbDictionary
3
ACAD_GROUP
350
D
3
ACAD_MLINESTYLE
350
17
0
DICTIONARY
5
D
100
AcDbDictionary
0
DICTIONARY
5
1A
330
C
100
AcDbDictionary
0
DICTIONARY
5
17
100
AcDbDictionary
0
ENDSEC
0
EOF
